<svg width="135" height="122" viewBox="0 0 135 122" fill="none" xmlns="http://www.w3.org/2000/svg">
<path d="M117.56 118.191L122.153 74.0867L128.294 47.7674C128.315 47.6802 128.328 47.5917 128.336 47.5024L129.982 27.0705C130.071 25.9735 129.17 25.0511 128.071 25.111C122.531 25.413 107.177 26.1048 97.5377 25.1184C81.0184 23.4279 59.5525 18.802 52.9987 17.34C51.9387 17.1036 50.9153 17.8462 50.8047 18.9266L46.632 59.7021C46.6187 59.8317 46.5915 59.9594 46.5507 60.0831L30.5186 108.728C30.1068 109.977 31.1239 111.24 32.433 111.109C38.853 110.471 54.9571 109.058 66.1332 109.695C83.3349 110.676 107.948 117.602 115.228 119.746C116.319 120.067 117.442 119.322 117.56 118.191Z" fill="#C9C7D3"/>
<path d="M120.008 97.2146L125.475 99.5163L115.82 102.468L112.74 104.12L108.34 107.05L104.709 109.583L110.197 104.591L114.31 101.191L120.008 97.2146Z" fill="#1E1D37"/>
<path d="M109.609 30.9484L108.728 24.7068L109.302 21.8021L109.876 18.8973L113.626 25.3907L111.827 25.8217L110.642 30.0822L109.609 30.9484Z" fill="#1E1D37"/>
<path d="M45.7176 90.8002L37.6602 92.8647L33.7671 92.5342L29.8739 92.2037L37.8442 86.341L38.6712 88.6371L44.4312 89.5718L45.7176 90.8002Z" fill="#1E1D37"/>
<circle r="23.99" transform="matrix(0.994805 0.101803 -0.101804 0.994804 84.5169 68.669)" stroke="#D24B4B" stroke-width="3.60796"/>
<path d="M116.123 80.0092L109.716 78.7255L107.803 76.0446L105.472 74.1847L110.488 74.0479L112.567 75.6497L115.827 78.6843L116.123 80.0092Z" fill="#C9C7D3"/>
<path d="M106.655 58.8993L100.248 57.6156L98.3351 54.9346L96.0042 53.0747L101.02 52.938L103.1 54.5398L106.359 57.5744L106.655 58.8993Z" fill="#C9C7D3"/>
<path d="M97.0033 74.0511L94.8302 79.0272L92.2457 70.1544L90.7719 67.3159L88.1431 63.2535L85.8694 59.8989L90.3715 64.9826L93.4327 68.7881L97.0033 74.0511Z" fill="#EDEDED"/>
<path d="M66.5897 72.0927L64.4166 77.0687L61.8321 68.1959L60.3583 65.3574L57.7295 61.295L55.4558 57.9404L59.9579 63.0241L63.0192 66.8296L66.5897 72.0927Z" fill="#EDEDED"/>
<path d="M101.081 43.4443L93.6135 2.93583C93.4155 1.86189 92.3195 1.20531 91.278 1.53389C86.0053 3.19745 71.2768 7.69303 61.6818 9.13444C45.0974 11.6258 22.8822 12.4707 16.4114 12.6723C15.4002 12.7038 14.6094 13.5557 14.6551 14.5664L15.6128 35.7459L20.4946 64.6883C20.5185 64.8297 20.5254 64.9735 20.5152 65.1165L17.5494 106.762C17.4558 108.078 18.7572 109.053 19.9957 108.601C26.0637 106.384 41.2992 101.02 52.276 98.862C69.3251 95.51 95.1775 96.142 102.517 96.4055C103.594 96.4441 104.463 95.5447 104.393 94.4699L101.081 43.4443Z" fill="url(#paint0_linear_90_1875)"/>
<path d="M27.8063 85.6322L20.5144 89.6338L16.661 90.2809L12.8077 90.928L19.0716 83.2691L20.4432 85.2876L26.255 84.7619L27.8063 85.6322Z" fill="#1E1D37"/>
<circle r="23.2991" transform="matrix(0.988904 -0.148559 0.148558 0.988904 58.015 55.6908)" stroke="#1E1D37" stroke-width="3.60796"/>
<path d="M83.9211 45.5354L82.623 51.7473L80.004 53.5838L78.179 55.8326L78.0865 50.9601L79.6587 48.9536L82.632 45.8121L83.9211 45.5354Z" fill="#F6F6FB"/>
<path d="M75.4841 29.5824L74.2004 28.5066L73.0324 29.707C65.6181 37.3269 61.3403 42.9157 55.1359 54.4547L49.7059 52.3386L48.2992 51.7904L47.5117 53.0786L45.7848 55.9036L44.9973 57.1918L46.1267 58.1939L58.8649 69.4967L60.9141 71.3151L61.7748 68.7141L62.5773 66.2892C67.2353 52.2129 70.4674 45.1519 78.361 34.1727L79.3387 32.8129L78.0551 31.737L75.4841 29.5824Z" fill="#1E1D37" stroke="#F8F7FC" stroke-width="3.60796"/>
<path d="M71.0599 57.7415L70.2164 62.9471L65.6439 55.2236L63.5725 52.909L60.1193 49.7217L57.1708 47.1145L62.6329 50.8106L66.431 53.6519L71.0599 57.7415Z" fill="#F8F7FC"/>
<path d="M41.9762 63.2385L41.1327 68.4441L36.5602 60.7207L34.4888 58.4061L31.0355 55.2188L28.0871 52.6116L33.5491 56.3077L37.3473 59.149L41.9762 63.2385Z" fill="#F6F5FB"/>
<defs>
<linearGradient id="paint0_linear_90_1875" x1="48.8585" y1="7.57377" x2="63.1492" y2="102.702" gradientUnits="userSpaceOnUse">
<stop stop-color="white"/>
<stop offset="1" stop-color="#ECEAF5"/>
</linearGradient>
</defs>
</svg>
