<svg width="129" height="122" viewBox="0 0 129 122" fill="none" xmlns="http://www.w3.org/2000/svg">
<rect x="10.8123" y="61.7396" width="48.9566" height="48.9566" rx="6.62885" fill="#323059"/>
<path d="M5.76587 56.5074L64.8155 115.557" stroke="#5A5989" stroke-width="2.20962" stroke-linecap="round" stroke-dasharray="4.42 8.84"/>
<path d="M64.8154 56.5074L5.76588 115.557" stroke="#5A5989" stroke-width="2.20962" stroke-linecap="round" stroke-dasharray="4.42 8.84"/>
<rect x="1.60693" y="52.5343" width="67.3673" height="67.3673" stroke="#5A5989" stroke-width="2.20962" stroke-linecap="round" stroke-dasharray="4.42 9.94"/>
<path d="M7.42633 88.6523L10.3986 81.5813L13.9295 80.0061L16.6133 77.7587L15.5997 83.5612L13.2716 85.5794L9.01958 88.6212L7.42633 88.6523Z" fill="#1E1D37"/>
<path d="M20.0898 48.4889C19.4091 47.8081 19.2624 46.7584 19.7306 45.9171L24.9264 36.5801L48.0523 13.4557L56.6777 8.65494C57.9396 7.95258 59.5143 8.1725 60.5355 9.19371L78.7359 27.394C79.7482 28.4064 79.9741 29.9639 79.291 31.2221L74.5505 39.954L51.4254 63.0791L41.9864 68.2035C41.1476 68.6589 40.1092 68.5083 39.4344 67.8334L20.0898 48.4889Z" fill="url(#paint0_linear_90_1757)"/>
<path d="M34.5463 58.5597L30.2044 60.1584L28.0313 60.1959L25.8582 60.2335L29.9368 56.5379L30.5245 57.7617L33.7649 57.9527L34.5463 58.5597Z" fill="#1E1D37"/>
<path d="M47.3742 8.53182L48.9931 15.5928L47.1538 18.7473L46.3348 21.9503L43.9132 16.9419L44.5858 14.1107L46.1695 9.43399L47.3742 8.53182Z" fill="#1E1D37"/>
<path d="M61.7435 58.3435C60.9587 57.4936 60.985 56.1757 61.803 55.3577L66.2337 50.927C67.0517 50.1089 68.3696 50.0827 69.2195 50.8675L107.492 86.2085C107.492 86.2085 113.978 91.1711 108.013 97.1366C102.047 103.102 97.0845 96.6156 97.0845 96.6156L61.7435 58.3435Z" fill="url(#paint1_linear_90_1757)"/>
<path d="M102.78 70.5976L107.516 76.3268L95.0799 74.0021L90.7016 74.0488L84.1146 74.7504L78.6117 75.4554L87.6039 73.0963L94.1442 71.7078L102.78 70.5976Z" fill="#1E1D37"/>
<path d="M31.5198 27.3308C29.8366 25.6476 29.8347 22.9168 31.5179 21.2336L32.7049 20.0465C34.3881 18.3633 37.119 18.3652 38.8022 20.0484L31.5198 27.3308Z" fill="#D29E78"/>
<defs>
<linearGradient id="paint0_linear_90_1757" x1="30.171" y1="57.526" x2="68.564" y2="19.133" gradientUnits="userSpaceOnUse">
<stop stop-color="#D7D6E2"/>
<stop offset="1" stop-color="#9F9EB0"/>
</linearGradient>
<linearGradient id="paint1_linear_90_1757" x1="64.0183" y1="53.1423" x2="108.013" y2="97.1366" gradientUnits="userSpaceOnUse">
<stop stop-color="#D29E78"/>
<stop offset="1" stop-color="#9C7253"/>
</linearGradient>
</defs>
</svg>
