<svg width="126" height="133" viewBox="0 0 126 133" fill="none" xmlns="http://www.w3.org/2000/svg">
<mask id="mask0_90_1239" style="mask-type:alpha" maskUnits="userSpaceOnUse" x="0" y="49" width="126" height="84">
<path d="M11.8047 81.5408L0.933105 57.8464L26.2574 55.9613L39.4888 52.6609L42.9453 53.8535L46.5104 50.9095L51.1099 49.7622L62.5391 68.9967L99.0567 79.3108L125.26 106.629L104.061 109.282L59.3329 132.471L54.9498 124.777L64.4576 116.508L52.6816 120.796L41.9108 101.89L23.7718 89.6297L26.2574 86.2384L19.6031 86.8119L11.8047 81.5408Z" fill="white"/>
</mask>
<g mask="url(#mask0_90_1239)">
<path d="M11.8047 81.5408L0.933105 57.8464L26.2574 55.9613L39.4888 52.6609L42.9453 53.8535L46.5104 50.9095L51.1099 49.7622L62.5391 68.9967L99.0567 79.3108L125.26 106.629L104.061 109.282L59.3329 132.471L54.9498 124.777L64.4576 116.508L52.6816 120.796L41.9108 101.89L23.7718 89.6297L26.2574 86.2384L19.6031 86.8119L11.8047 81.5408Z" fill="#DFD4CB"/>
<path d="M14.5731 80.8115C29.9606 77.2678 60.0055 70.3485 63.0967 68.582L52.768 50.7398L47.6842 51.9995L43.0853 55.5189L38.6383 53.9903L26.4493 57.4881L4.39233 59.4793L14.2521 80.8854L14.5731 80.8115Z" fill="#F8EFE8"/>
<path d="M61.6776 131.459L127.586 106.516L100.568 78.8071L70.3559 91.2371L44.594 101.17L54.1825 117.584L67.0932 115.322L58.3955 124.731L61.6776 131.459Z" fill="#F8EFE8"/>
</g>
<path d="M90.1945 60.1877C95.8929 61.7089 99.225 61.8645 105.386 61.0345L98.1751 69.9536C89.3735 76.6707 84.794 78.5153 76.7681 81.0402L67.7173 98.324L63.0966 103.466L72.8311 79.0901C72.8311 79.0901 70.4277 67.5689 71.9871 61.0345C76.4292 42.4204 81.5426 30.9078 91.6223 19.7842C91.1434 26.2858 91.6223 32.7611 91.6223 32.7611C91.6223 32.7611 94.128 17.7432 95.8861 15.3814C103.57 7.91744 117.172 0.901855 117.172 0.901855C119.4 9.4411 119.029 22.1881 108.881 50.4043C104.428 54.9256 96.8111 58.556 90.1945 60.1877Z" fill="#F84444"/>
<path d="M117.173 0.901855C112.259 19.7842 106.524 13.1575 87.3083 51.5889C79.9416 66.3223 76.7682 81.0402 76.7682 81.0402L67.7175 98.324L63.0967 103.466L72.8312 79.0901C72.8312 79.0901 70.4279 67.5689 71.9872 61.0345C76.4294 42.4204 81.5427 30.9078 91.6224 19.7842C91.1435 26.2858 91.6224 32.7611 91.6224 32.7611C91.6224 32.7611 94.1281 17.7432 95.8863 15.3814C103.57 7.91744 117.173 0.901855 117.173 0.901855Z" fill="#DA2424"/>
</svg>
