<svg width="124" height="125" viewBox="0 0 124 125" fill="none" xmlns="http://www.w3.org/2000/svg">
<path fill-rule="evenodd" clip-rule="evenodd" d="M123.76 62.4326L99.6443 76.3559C95.6018 87.241 86.9565 95.8888 76.0732 99.9348L62.1371 124.073L48.2011 99.9349C37.294 95.8802 28.6346 87.2034 24.6034 76.2849L0.609677 62.4321L24.6034 48.5793C28.6404 37.645 37.3189 28.959 48.2482 24.9118L62.1371 0.855466L76.0261 24.9119C86.932 28.9505 95.5967 37.6082 99.6447 48.5094L123.76 62.4326ZM30.5674 62.4321C30.5674 44.9966 44.7016 30.8624 62.137 30.8624C79.5724 30.8624 93.7066 44.9966 93.7066 62.4321C93.7066 79.8675 79.5724 94.0017 62.137 94.0017C44.7016 94.0017 30.5674 79.8675 30.5674 62.4321ZM62.1371 80.1452C71.9201 80.1452 79.8508 72.2145 79.8508 62.4315C79.8508 52.6485 71.9201 44.7177 62.1371 44.7177C52.354 44.7177 44.4233 52.6485 44.4233 62.4315C44.4233 72.2145 52.354 80.1452 62.1371 80.1452Z" fill="#FFCD4B"/>
<path d="M79.8506 62.4315C79.8506 72.2146 71.9199 80.1453 62.1368 80.1453C52.3538 80.1453 44.4231 72.2146 44.4231 62.4315C44.4231 52.6485 52.3538 44.7178 62.1368 44.7178C71.9199 44.7178 79.8506 52.6485 79.8506 62.4315Z" fill="#F9963B"/>
<path d="M82.1652 94.6263L62.5427 87.816L54.8925 81.7601L47.2422 75.7043L63.6524 75.1933L70.4762 80.4076L81.1805 90.2952L82.1652 94.6263Z" fill="white"/>
<path d="M22.6554 40.5273L19.3064 53.844L15.7612 59.2327L12.2161 64.6214L9.9856 48.4405L13.9683 49.0483L19.8601 41.4266L22.6554 40.5273Z" fill="white"/>
<path d="M103.994 25.3945L120.685 31.4828L92.2327 41.7207L83.2618 47.1087L70.5282 56.5164L60.0339 64.6212L75.7234 48.8889L87.5305 38.1209L103.994 25.3945Z" fill="white"/>
</svg>
