<svg width="73" height="81" viewBox="0 0 73 81" fill="none" xmlns="http://www.w3.org/2000/svg">
<path d="M1 8.32763C1 3.7284 4.72841 0 9.32763 0H63.9793C68.5785 0 72.3069 3.72841 72.3069 8.32763V52.2917C72.3069 55.6862 70.5849 58.8489 67.7338 60.6911L41.1728 77.8523C38.422 79.6296 34.8849 79.6296 32.1342 77.8523L5.57314 60.6911C2.72198 58.8489 1 55.6862 1 52.2917V8.32763Z" fill="#7343FB"/>
<path d="M70.6775 0L72.4155 5.52995L63.6938 17.264L62.394 17.822L57.2459 24.0644L54.9998 25.0374L59.0771 19.8865L62.1024 14.0094L70.6775 0Z" fill="white"/>
<path d="M6.92749 43.777L4.67017 49.3001L2.81466 51.4007L0.959152 53.5014L0.992 46.404L2.66799 46.9098L5.66989 43.9924L6.92749 43.777Z" fill="white"/>
</svg>
