<svg width="32" height="32" viewBox="0 0 32 32" fill="none" xmlns="http://www.w3.org/2000/svg">
<path d="M19.7518 21.9934C19.0231 22.7221 17.8417 22.7221 17.113 21.9934C16.9893 21.8699 16.9893 21.6694 17.1129 21.5458L21.6137 17.045C21.7373 16.9214 21.9378 16.9213 22.0615 17.0449C22.7902 17.7736 22.7902 18.955 22.0615 19.6837L21.7205 20.0247L20.0925 21.6527L19.7518 21.9934Z" fill="white"/>
<path d="M8.76689 13.6476L6.20619 11.0868C4.413 9.29366 3.39764 5.54993 3.13065 4.26762C2.98108 3.54924 3.61718 2.91315 4.33555 3.06274C5.61786 3.32975 9.38062 4.36426 11.1547 6.13834L13.7154 8.69909C14.3236 9.30728 14.3236 10.2933 13.7154 10.9015L10.9693 13.6476C10.3611 14.2558 9.37508 14.2558 8.76689 13.6476Z" fill="white"/>
<path d="M4.52545 24.867L1.22898 28.1635C0.854729 28.5377 0.709966 29.094 0.84149 29.6525C1.00912 30.3643 1.59232 30.9475 2.30414 31.1151C2.86263 31.2467 3.4189 31.1019 3.79316 30.7276L7.08963 27.4312C7.78069 26.7401 7.78069 25.6197 7.08963 24.9286L7.02801 24.867C6.33695 24.1759 5.21652 24.1759 4.52545 24.867Z" fill="white"/>
<path fill-rule="evenodd" clip-rule="evenodd" d="M6.04317 16.7386C6.87823 18.7033 8.09719 20.5451 9.70266 22.1506C11.3081 23.756 13.1499 24.975 15.1146 25.8101C14.4757 27.3821 12.4407 27.794 11.2409 26.5941C10.2016 25.5549 9.05545 24.4087 8.24998 23.6033C7.45064 22.8039 6.33485 21.6881 5.32364 20.6769C4.12041 19.4737 4.49231 17.4389 6.04317 16.7386Z" fill="white"/>
<path d="M27.1415 24.867L30.438 28.1635C30.8123 28.5377 30.957 29.094 30.8255 29.6525C30.6579 30.3643 30.0747 30.9475 29.3629 31.1151C28.8044 31.2467 28.2481 31.1019 27.8738 30.7276L24.5774 27.4312C23.8863 26.7401 23.8863 25.6197 24.5774 24.9286L24.639 24.867C25.33 24.1759 26.4505 24.1759 27.1415 24.867Z" fill="white"/>
<path fill-rule="evenodd" clip-rule="evenodd" d="M25.6238 16.7386C24.7888 18.7033 23.5698 20.5451 21.9643 22.1506C20.3589 23.756 18.5171 24.975 16.5524 25.8101C17.1913 27.3821 19.2262 27.794 20.4261 26.5941C21.4654 25.5549 22.6115 24.4087 23.417 23.6033C24.2164 22.8039 25.3321 21.6881 26.3433 20.6769C27.5466 19.4737 27.1747 17.4389 25.6238 16.7386Z" fill="white"/>
<path d="M14.5528 22.2039C13.8241 22.9326 12.6426 22.9326 11.9139 22.2039L11.3726 21.6626C11.3727 21.6625 11.3725 21.6627 11.3726 21.6626L19.8478 13.1874C20.2026 12.8326 20.2026 12.2573 19.8478 11.9025C19.493 11.5477 18.9177 11.5477 18.5629 11.9025L10.088 20.3774C10.0879 20.3775 10.0881 20.3773 10.088 20.3774L9.94526 20.2352L9.60426 19.8942C8.87556 19.1655 8.87556 17.9841 9.60426 17.2554L20.5111 6.34858C22.2851 4.57451 26.0479 3.54 27.3302 3.27299C28.0486 3.1234 28.6847 3.75949 28.5351 4.47787C28.2681 5.76018 27.2528 9.50391 25.4596 11.2971L14.5528 22.2039Z" fill="white"/>
</svg>
