<svg width="126" height="128" viewBox="0 0 126 128" fill="none" xmlns="http://www.w3.org/2000/svg">
<path d="M2.96024 65.5512C2.96024 85.3999 6.09292 93.6201 7.65926 95.2491C7.65926 95.2491 10.1629 97.4476 12.7607 92.5895C13.3359 91.5138 14.6948 91.0031 15.5576 91.8654C21.2459 97.551 16.7821 109.936 27.9043 119.204C36.4994 126.367 49.2936 127.821 58.4473 127.23C60.6229 127.089 60.4572 124.641 58.3758 123.993C34.8996 116.679 27.9398 83.4732 32.135 71.4429C32.7285 69.7411 34.2142 70.5796 34.1648 72.3812C34.0772 75.5716 34.7534 78.7481 35.7349 81.3343C37.0817 84.8827 39.9679 83.5594 40.4931 79.8006C43.0396 61.5741 53.3573 55.4017 61.8968 54.4085C64.5429 54.1007 65.4884 57.5882 63.8569 59.6941C60.3935 64.1646 56.9149 71.4803 56.9149 82.2043C56.9149 102.55 77.1281 107.368 89.4723 107.368C102.219 107.368 117.195 98.6301 120.469 87.6286C120.961 85.9751 119.063 85.0404 117.606 85.9651C115.18 87.5055 112.947 88.103 109.943 88.1852C109.11 88.208 108.691 87.213 109.213 86.5631C134.554 55.0058 120.897 28.4181 112.623 21.1127C111.071 19.7428 109.644 21.2877 109.169 23.3025C108.648 25.5168 107.244 27.4913 105.832 28.9456C104.874 29.9322 103.274 29.4106 102.757 28.1365C99.8926 21.084 90.0002 2.34839 65.7393 2.34839C33.2793 2.34839 15.5344 14.5209 7.90504 23.4127C6.95037 24.5254 7.62795 26.1828 9.07198 26.4361L12.7593 27.083C14.3793 27.3672 15.0498 29.4401 14.0406 30.7389C9.28044 36.8656 2.96024 49.0526 2.96024 65.5512Z" fill="#FFE24D"/>
<path d="M42.1469 22.833L47.0636 30.1683L48.1098 34.1824L49.1561 38.1965L40.4683 32.2918L42.4741 30.6518L41.3723 24.5552L42.1469 22.833Z" fill="#14132B"/>
<path d="M65.781 12.0798L52.4534 9.08547L47.005 5.69591L41.5566 2.30634L52.2419 0.754848L57.0878 3.65583L64.8162 9.32266L65.781 12.0798Z" fill="#14132B"/>
<path d="M9.02767 68.8861L6.87393 77.4501L4.59401 80.9156L2.3141 84.3811L0.879669 73.9751L3.44099 74.366L7.23002 69.4644L9.02767 68.8861Z" fill="#14132B"/>
<path d="M65.0294 119.532C58.1646 118.24 53.0942 111.366 50.4165 106.139C49.532 104.413 50.7457 102.423 52.6767 102.611C61.95 103.511 65.9823 112.125 78.0057 115.563C79.8331 116.086 80.1762 118.362 78.3472 118.879C74.8188 119.876 70.1223 120.492 65.0294 119.532Z" fill="#FFE24D"/>
<path d="M71.357 31.1957C65.4303 24.4868 37.0607 23.1923 25.5249 50.1362C24.2536 53.1056 28.1632 54.9408 30.424 52.6338C46.4861 36.2435 63.1853 38.179 74.2776 50.3812C75.4538 51.675 77.5741 51.1416 77.587 49.393C77.6253 44.1817 76.361 36.86 71.357 31.1957Z" fill="#14132B"/>
<path d="M69.6575 79.0135C69.6575 72.4209 72.1873 67.325 75.1074 64.4377C76.7268 62.8365 78.6835 64.6524 79.1708 66.877C79.6749 69.1779 81.1995 71.2272 84.7368 71.2272C87.9659 71.2272 90.8406 64.0879 87.9084 53.311C84.9427 42.411 77.8644 29.6946 79.1677 26.1851C79.5702 25.1011 80.9669 25.9177 81.5116 26.9377C90.8621 44.4486 108.344 46.8786 108.344 66.6534C108.344 87.0474 92.0292 94.8342 85.9728 94.8342C79.9164 94.8342 69.6575 91.2498 69.6575 79.0135Z" fill="#14132B"/>
<path d="M79.8474 96.0439L70.1389 108.232L63.9475 112.137L57.756 116.041L63.0433 98.2757L66.8733 100.772L76.5372 95.6616L79.8474 96.0439Z" fill="#14132B"/>
<ellipse cx="90.8399" cy="117.643" rx="2.79848" ry="4.48651" transform="rotate(-96.6143 90.8399 117.643)" fill="#FFE24D"/>
</svg>
