<svg width="126" height="126" viewBox="0 0 126 126" fill="none" xmlns="http://www.w3.org/2000/svg">
<path d="M78.9412 85.3506C76.0094 88.2823 71.2562 88.2823 68.3245 85.3506C67.8269 84.8536 67.8267 84.0472 68.324 83.5499L86.4318 65.4422C86.9292 64.9447 87.7357 64.9445 88.2334 65.4417C91.1651 68.3734 91.1651 73.1267 88.2334 76.0584L86.8615 77.4303L80.3118 83.98L78.9412 85.3506Z" fill="#D0EEFF"/>
<path d="M34.7462 51.7735L24.444 41.4711C17.2296 34.2567 13.1446 19.1949 12.0705 14.0359C11.4687 11.1457 14.0279 8.58662 16.918 9.18843C22.077 10.2627 37.2154 14.4247 44.3529 21.5622L54.6552 31.8647C57.102 34.3116 57.102 38.2787 54.6552 40.7255L43.6072 51.7735C41.1603 54.2204 37.1931 54.2204 34.7462 51.7735Z" fill="#D0EEFF"/>
<path d="M28.935 32.3962L26.7813 40.9602L24.5014 44.4257L22.2215 47.8912L20.787 37.4851L23.3484 37.8761L27.1374 32.9745L28.935 32.3962Z" fill="#14132B"/>
<path d="M17.6826 96.9116L4.42019 110.174C2.91448 111.68 2.33207 113.918 2.86122 116.165C3.53565 119.028 5.88195 121.375 8.74578 122.049C10.9927 122.578 13.2307 121.996 14.7364 120.49L27.9988 107.228C30.7791 104.448 30.7791 99.9398 27.9988 97.1595L27.7509 96.9116C24.9706 94.1313 20.4629 94.1313 17.6826 96.9116Z" fill="#D0EEFF"/>
<path fill-rule="evenodd" clip-rule="evenodd" d="M23.7888 64.2095C27.1484 72.1139 32.0525 79.5238 38.5117 85.983C44.9708 92.4421 52.3807 97.3462 60.2852 100.706C57.7144 107.03 49.5276 108.688 44.7002 103.86C40.5191 99.6792 35.9078 95.068 32.6672 91.8274C29.4513 88.6115 24.9623 84.1224 20.894 80.0541C16.0531 75.2132 17.5493 67.0268 23.7888 64.2095Z" fill="#D0EEFF"/>
<path d="M108.671 96.9116L121.933 110.174C123.439 111.68 124.022 113.918 123.492 116.165C122.818 119.028 120.472 121.375 117.608 122.049C115.361 122.578 113.123 121.996 111.617 120.49L98.3549 107.228C95.5746 104.448 95.5746 99.9398 98.3549 97.1595L98.6028 96.9116C101.383 94.1313 105.891 94.1313 108.671 96.9116Z" fill="#D0EEFF"/>
<path fill-rule="evenodd" clip-rule="evenodd" d="M102.565 64.2095C99.2052 72.1139 94.301 79.5238 87.8419 85.983C81.3827 92.4421 73.9729 97.3462 66.0684 100.706C68.6391 107.03 76.826 108.688 81.6534 103.86C85.8345 99.6792 90.4457 95.068 93.6863 91.8274C96.9022 88.6115 101.391 84.1224 105.46 80.0541C110.3 75.2132 108.804 67.0268 102.565 64.2095Z" fill="#D0EEFF"/>
<path d="M58.0237 86.1972C55.092 89.1289 50.3387 89.1289 47.407 86.1972L45.2292 84.0195C45.2296 84.0191 45.2289 84.0198 45.2292 84.0195L79.3266 49.9221C80.7541 48.4945 80.7541 46.1801 79.3266 44.7526C77.8991 43.325 75.5846 43.325 74.1571 44.7526L40.0609 78.8488C40.0605 78.8492 40.0613 78.8484 40.0609 78.8488L39.4867 78.2769L38.1148 76.905C35.1831 73.9733 35.1831 69.22 38.1148 66.2883L81.9951 22.4079C89.1326 15.2705 104.271 11.1084 109.43 10.0342C112.32 9.43235 114.879 11.9915 114.278 14.8817C113.203 20.0407 109.118 35.1025 101.904 42.3169L58.0237 86.1972Z" fill="#D0EEFF"/>
<path d="M59.0386 81.0371L45.3814 81.3119L39.2813 79.3214L33.1811 77.331L43.1868 73.2728L48.5853 74.9327L57.4432 78.5901L59.0386 81.0371Z" fill="#14132B"/>
<path d="M114.731 32.2809L121.606 41.4066L102.672 36.9737L95.9461 36.7415L85.7834 37.3613L77.2849 38.0618L91.2557 35.0639L101.395 33.3859L114.731 32.2809Z" fill="#14132B"/>
</svg>
