<?xml version="1.0" standalone="no"?>
<!DOCTYPE svg PUBLIC "-//W3C//DTD SVG 20010904//EN"
 "http://www.w3.org/TR/2001/REC-SVG-20010904/DTD/svg10.dtd">
<svg version="1.0" xmlns="http://www.w3.org/2000/svg"
 width="1040.000000pt" height="1040.000000pt" viewBox="0 0 1040.000000 1040.000000"
 preserveAspectRatio="xMidYMid meet">
<metadata>
Created by potrace 1.14, written by Peter Selinger 2001-2017
</metadata>
<g transform="translate(0.000000,1040.000000) scale(0.100000,-0.100000)"
fill="#000000" stroke="none">
<path d="M2099 10395 c-3 -2 -41 -6 -84 -9 -44 -2 -80 -5 -80 -6 0 -1 -11 -3
-25 -5 -153 -18 -317 -83 -407 -160 -6 -5 -25 -21 -43 -34 -36 -28 -121 -115
-133 -136 -4 -9 -19 -27 -33 -42 -13 -14 -24 -30 -24 -34 0 -4 -11 -24 -24
-44 -41 -60 -91 -213 -102 -309 -2 -17 -7 -67 -11 -111 -10 -103 -10 -6275 -1
-6335 5 -25 11 -65 14 -90 3 -25 10 -53 15 -62 6 -10 8 -18 5 -18 -7 0 33
-111 66 -180 37 -76 109 -188 138 -215 11 -10 20 -22 20 -27 0 -5 11 -19 24
-31 79 -73 137 -122 176 -147 13 -8 34 -25 48 -38 14 -12 31 -22 38 -22 8 0
14 -4 14 -8 0 -5 12 -15 28 -23 15 -8 29 -16 32 -19 3 -3 68 -47 145 -96 77
-50 153 -99 169 -110 16 -10 38 -24 50 -31 11 -7 28 -17 36 -23 53 -38 444
-288 512 -327 73 -43 89 -48 146 -50 65 -1 108 14 156 56 19 16 54 86 61 120
4 23 16 89 20 116 2 11 7 45 10 75 4 30 13 86 20 123 7 42 8 70 2 74 -6 3 -5
8 1 12 6 3 13 35 17 71 10 95 14 123 19 146 2 12 7 45 11 75 3 30 8 65 10 79
2 14 9 61 15 105 6 45 13 99 16 120 10 68 13 89 18 130 4 34 24 138 40 212 6
29 22 57 39 71 18 16 76 22 103 12 18 -7 53 -63 60 -95 2 -12 11 -52 17 -80 7
-27 53 -321 63 -395 2 -19 7 -46 9 -60 5 -26 14 -86 20 -130 10 -78 16 -118
20 -140 3 -14 10 -56 15 -95 5 -38 12 -83 16 -100 3 -16 7 -48 9 -70 2 -22 4
-40 5 -40 3 0 9 -39 15 -95 3 -30 8 -64 12 -74 3 -11 7 -33 8 -50 2 -17 6 -51
10 -76 4 -25 9 -54 10 -65 1 -11 3 -20 4 -20 1 0 4 -20 7 -45 3 -25 6 -52 8
-60 1 -8 6 -37 10 -65 45 -288 117 -447 276 -605 63 -63 134 -120 149 -120 6
0 11 -4 11 -8 0 -5 12 -15 28 -23 15 -8 29 -16 32 -20 8 -8 100 -69 106 -69 6
0 63 -40 82 -57 7 -7 20 -13 28 -13 8 0 14 -3 14 -8 0 -4 16 -16 35 -26 19
-11 35 -23 35 -28 0 -4 6 -8 13 -8 6 0 46 -23 87 -50 41 -28 82 -55 90 -60 8
-5 31 -20 50 -33 243 -159 310 -195 377 -202 82 -9 133 -10 133 -2 0 4 7 7 15
7 26 0 106 41 207 107 53 35 100 63 103 63 4 0 13 6 20 13 32 28 45 37 53 37
4 0 17 7 27 15 11 9 65 45 120 80 55 35 105 68 112 74 7 6 15 11 18 11 5 0
115 70 125 80 3 3 37 26 75 52 112 76 219 186 303 309 17 26 28 49 25 53 -4 3
-2 6 4 6 6 0 23 28 38 62 14 35 33 77 40 93 37 82 127 312 128 323 0 6 3 12 7
12 4 0 13 19 20 43 8 23 17 47 21 52 4 6 7 12 7 15 1 8 44 117 117 295 4 11 7
23 7 28 -1 4 3 7 10 7 6 0 9 3 5 6 -3 3 10 43 30 87 19 45 36 88 36 95 0 6 4
12 9 12 4 0 8 7 8 15 0 8 14 30 31 50 27 30 37 35 75 35 36 0 49 -6 74 -31 16
-18 30 -38 30 -45 0 -8 5 -14 10 -14 6 0 10 -7 10 -15 0 -8 11 -38 24 -67 14
-30 34 -78 46 -108 12 -30 28 -71 37 -90 8 -19 20 -46 25 -60 6 -14 15 -34 21
-45 6 -11 19 -36 28 -55 21 -42 41 -61 95 -89 46 -24 116 -29 159 -12 41 16
109 52 115 60 3 3 21 15 40 25 19 11 37 22 40 26 4 6 24 18 118 75 9 6 64 41
122 79 292 192 361 236 370 236 6 0 10 4 10 9 0 5 10 13 22 17 12 3 27 12 34
18 6 7 42 32 80 56 38 25 71 48 72 52 2 5 10 8 18 8 8 0 14 5 14 10 0 6 5 10
11 10 34 0 291 229 305 272 3 10 9 18 14 18 9 0 91 128 94 146 1 7 7 18 12 25
26 34 82 197 90 264 3 22 7 47 10 55 15 42 17 487 17 3180 0 3011 -2 3264 -29
3339 -2 8 -7 30 -10 50 -22 154 -157 366 -314 495 -30 24 -157 106 -165 106
-3 0 -26 9 -50 20 -24 11 -52 21 -62 23 -10 1 -22 5 -28 9 -9 5 -79 18 -127
24 -10 1 -19 2 -20 3 -2 1 -25 5 -53 8 -58 7 -6230 15 -6236 8z"/>
</g>
</svg>
