<svg width="195" height="68" viewBox="0 0 195 68" fill="none" xmlns="http://www.w3.org/2000/svg">
<path d="M51.4205 42.6626V10.096C51.4205 6.79453 51.4205 5.14378 50.778 3.88278C50.2128 2.77357 49.311 1.87175 48.2018 1.30658C46.9408 0.664062 45.2901 0.664062 41.9886 0.664062H26.1893H10.39C7.08848 0.664062 5.43773 0.664062 4.17672 1.30658C3.06751 1.87175 2.16569 2.77357 1.60052 3.88278C0.958008 5.14378 0.958008 6.79453 0.958008 10.096V42.6626C0.958008 44.9148 0.958008 46.0409 1.27231 47.06C1.55052 47.9621 2.00641 48.7994 2.61313 49.5227C3.29856 50.3397 4.24441 50.9508 6.13612 52.1731L9.61584 54.4213C10.6107 55.0641 11.1082 55.3855 11.548 55.3727C11.9323 55.3614 12.2955 55.1944 12.554 54.9099C12.85 54.5842 12.9296 53.9974 13.0888 52.8236L13.6239 48.8788C13.9203 46.6938 14.0685 45.6013 14.3395 45.4245C14.5717 45.2729 14.8711 45.2709 15.1053 45.4195C15.3786 45.5928 15.541 46.6833 15.8659 48.8642L16.8193 55.2644L16.8193 55.2645C17.0505 56.8164 17.1661 57.5924 17.4619 58.2869C17.724 58.9023 18.089 59.4687 18.5413 59.9616C19.0516 60.5178 19.7105 60.9436 21.0285 61.7951L21.0285 61.7951L24.1431 63.8074L24.1431 63.8075C24.884 64.2861 25.2544 64.5255 25.6533 64.6187C26.0059 64.701 26.3727 64.701 26.7253 64.6187C27.1241 64.5255 27.4946 64.2861 28.2354 63.8075L28.2355 63.8074L30.7837 62.161L30.7838 62.161C31.9042 61.4371 32.4644 61.0751 32.9394 60.6255C33.3609 60.2265 33.7318 59.7772 34.0436 59.2876C34.3949 58.736 34.6441 58.1172 35.1423 56.8798L36.8325 52.6823C37.1568 51.877 37.3189 51.4744 37.5518 51.3537C37.7538 51.249 37.9938 51.2478 38.1969 51.3505C38.4309 51.4689 38.597 51.87 38.929 52.672L39.2702 53.4961C39.6272 54.3582 39.8056 54.7892 40.1081 55.0205C40.3735 55.2233 40.702 55.3258 41.0357 55.3097C41.416 55.2915 41.8078 55.0383 42.5915 54.5319L46.2424 52.1731C48.1341 50.9508 49.08 50.3397 49.7654 49.5227C50.3721 48.7994 50.828 47.9621 51.1062 47.06C51.4205 46.0409 51.4205 44.9148 51.4205 42.6626Z" fill="white"/>
<path d="M16.1533 15.0183C16.0972 14.0982 16.8283 13.3213 17.75 13.3213H20.9536C21.8371 13.3213 22.5533 14.0375 22.5533 14.921V38.6165C22.5533 39.5 21.8371 40.2162 20.9536 40.2162H17.3538C16.4338 40.2162 15.7033 39.442 15.7568 38.5234L16.0239 33.9379C16.0405 33.6526 16.1694 33.3855 16.3823 33.1948V33.1948C16.6399 32.9642 16.6512 32.5645 16.4069 32.3197L16.3945 32.3072C16.1748 32.0871 16.0574 31.7851 16.0707 31.4744L16.1689 29.175L16.0499 26.7687L16.2941 17.331L16.1533 15.0183Z" fill="#14132B"/>
<path d="M16.7024 17.3994C16.2506 16.6168 16.5362 15.6156 17.3328 15.1891L20.2639 13.6199C21.0007 13.2255 21.9169 13.4647 22.3668 14.1688L23.3292 15.6749L25.1732 19.5707L27.0911 22.7738C27.1791 22.9207 27.2429 23.0808 27.2801 23.248L27.3824 23.7074C27.4027 23.7985 27.433 23.887 27.4728 23.9713L27.5218 24.0752C27.6217 24.2869 27.7956 24.4546 28.0107 24.5468V24.5468C28.1931 24.6249 28.3468 24.7578 28.4504 24.9272L29.2478 26.2306C29.3028 26.3204 29.3487 26.4154 29.385 26.5143L34.4092 40.2023L33.7176 40.2578C33.5999 40.2672 33.4814 40.2636 33.3644 40.247L32.0284 40.057C31.7658 40.0197 31.498 40.0528 31.2524 40.153V40.153C30.599 40.4195 29.8483 40.1934 29.4507 39.6104L28.4523 38.1465C28.3883 38.0526 28.3345 37.9522 28.2917 37.8469L27.6767 36.3319L26.7183 34.6667L24.9664 31.8371L23.0479 28.3909L16.7024 17.3994Z" fill="#14132B"/>
<path d="M29.2129 14.4797C29.2129 13.8641 29.7517 13.3872 30.3627 13.4621V13.4621L32.4478 13.5374L34.0111 13.434C34.9341 13.373 35.7164 14.1052 35.7164 15.0303V18.475C35.7164 18.5996 35.7018 18.7238 35.673 18.8451L35.3068 20.3849C35.2281 20.7162 35.2571 21.0641 35.3897 21.3778L35.5901 21.8519C35.6734 22.049 35.7164 22.2608 35.7164 22.4748V26.9563L35.3788 31.2235L35.6611 38.7428C35.6913 39.5474 35.0471 40.2162 34.2419 40.2162V40.2162C34.1413 40.2162 34.0409 40.2055 33.9425 40.1843L32.3776 39.8467C32.0274 39.7711 31.662 39.8153 31.3399 39.9722L31.1106 40.0838C30.9317 40.1709 30.7354 40.2162 30.5364 40.2162V40.2162C29.8074 40.2162 29.2183 39.6217 29.225 38.8927L29.367 23.375L29.2129 20.7173L29.3547 18.8275C29.3629 18.7177 29.3633 18.6074 29.3557 18.4976L29.2129 16.4074V14.4797Z" fill="#14132B"/>
<path d="M29.7845 7.30469L30.8732 10.7688L25.4097 18.1195L24.5954 18.469L21.3704 22.3795L19.9634 22.989L22.5176 19.7623L24.4127 16.0806L29.7845 7.30469Z" fill="white"/>
<path d="M28.0254 31.915L27.4498 34.2037L26.8405 35.1299L26.2312 36.056L25.8479 33.275L26.5324 33.3795L27.545 32.0696L28.0254 31.915Z" fill="white"/>
<path d="M68.6048 19.6641C68.4478 19.6641 68.3122 19.607 68.198 19.4928C68.0838 19.3786 68.0267 19.243 68.0267 19.086V5.25433C68.0267 5.09732 68.0838 4.96171 68.198 4.84752C68.3122 4.73333 68.4478 4.67623 68.6048 4.67623H71.9878C72.2733 4.67623 72.4803 4.74046 72.6087 4.86893C72.7372 4.9974 72.8228 5.09732 72.8657 5.16869L76.4842 11.0996V5.25433C76.4842 5.09732 76.5413 4.96171 76.6554 4.84752C76.7696 4.73333 76.9052 4.67623 77.0623 4.67623H80.9377C81.0947 4.67623 81.2303 4.73333 81.3445 4.84752C81.4587 4.96171 81.5158 5.09732 81.5158 5.25433V19.086C81.5158 19.243 81.4587 19.3786 81.3445 19.4928C81.2303 19.607 81.0947 19.6641 80.9377 19.6641H77.5547C77.2692 19.6641 77.0623 19.5998 76.9338 19.4714C76.8053 19.3286 76.7197 19.2287 76.6769 19.1716L73.0584 13.7118V19.086C73.0584 19.243 73.0013 19.3786 72.8871 19.4928C72.7729 19.607 72.6373 19.6641 72.4803 19.6641H68.6048ZM84.4541 19.6641C84.2971 19.6641 84.1615 19.607 84.0473 19.4928C83.9331 19.3786 83.876 19.243 83.876 19.086V5.25433C83.876 5.09732 83.9331 4.96171 84.0473 4.84752C84.1615 4.73333 84.2971 4.67623 84.4541 4.67623H95.4381C95.5951 4.67623 95.7307 4.73333 95.8449 4.84752C95.9591 4.96171 96.0162 5.09732 96.0162 5.25433V8.27331C96.0162 8.43033 95.9591 8.56593 95.8449 8.68012C95.7307 8.79432 95.5951 8.85141 95.4381 8.85141H89.0147V10.2003H94.967C95.124 10.2003 95.2596 10.2574 95.3738 10.3716C95.488 10.4858 95.5451 10.6214 95.5451 10.7784V13.5619C95.5451 13.7189 95.488 13.8545 95.3738 13.9687C95.2596 14.0829 95.124 14.14 94.967 14.14H89.0147V15.4889H95.6094C95.7664 15.4889 95.902 15.546 96.0162 15.6602C96.1304 15.7744 96.1875 15.91 96.1875 16.067V19.086C96.1875 19.243 96.1304 19.3786 96.0162 19.4928C95.902 19.607 95.7664 19.6641 95.6094 19.6641H84.4541ZM97.4506 19.6641C97.3221 19.6641 97.2079 19.6212 97.108 19.5356C97.0223 19.4357 96.9795 19.3215 96.9795 19.193C96.9795 19.1359 96.9866 19.086 97.0009 19.0431L101.776 5.3828C101.818 5.22579 101.918 5.06877 102.075 4.91175C102.232 4.75474 102.454 4.67623 102.739 4.67623H107.385C107.671 4.67623 107.892 4.75474 108.049 4.91175C108.206 5.06877 108.306 5.22579 108.349 5.3828L113.124 19.0431C113.138 19.086 113.145 19.1359 113.145 19.193C113.145 19.3215 113.095 19.4357 112.995 19.5356C112.909 19.6212 112.802 19.6641 112.674 19.6641H108.713C108.442 19.6641 108.242 19.607 108.113 19.4928C107.999 19.3643 107.921 19.243 107.878 19.1288L107.364 17.7156H102.761L102.247 19.1288C102.204 19.243 102.125 19.3643 102.011 19.4928C101.897 19.607 101.697 19.6641 101.412 19.6641H97.4506ZM103.853 13.5405H106.272L105.052 9.55798L103.853 13.5405ZM114.898 19.6641C114.741 19.6641 114.606 19.607 114.491 19.4928C114.377 19.3786 114.32 19.243 114.32 19.086V5.25433C114.32 5.09732 114.377 4.96171 114.491 4.84752C114.606 4.73333 114.741 4.67623 114.898 4.67623H121.236C123.291 4.67623 124.897 5.14014 126.053 6.06796C127.21 6.99578 127.788 8.26617 127.788 9.87915C127.788 10.8355 127.566 11.6706 127.124 12.3843C126.696 13.0837 126.146 13.6475 125.475 14.0757L128.109 18.9575C128.152 19.0431 128.173 19.1216 128.173 19.193C128.173 19.3215 128.123 19.4357 128.023 19.5356C127.938 19.6212 127.831 19.6641 127.702 19.6641H123.313C123.027 19.6641 122.813 19.5927 122.67 19.45C122.528 19.3072 122.435 19.1859 122.392 19.086L120.551 14.9964H119.673V19.086C119.673 19.243 119.616 19.3786 119.502 19.4928C119.387 19.607 119.252 19.6641 119.095 19.6641H114.898ZM119.673 10.9283H121.236C121.564 10.9283 121.807 10.8212 121.964 10.6071C122.135 10.3787 122.221 10.1218 122.221 9.83633C122.221 9.55084 122.142 9.28677 121.985 9.04411C121.843 8.78718 121.593 8.65871 121.236 8.65871H119.673V10.9283ZM68.6048 40.6641C68.4478 40.6641 68.3122 40.607 68.198 40.4928C68.0838 40.3786 68.0267 40.243 68.0267 40.086V26.2543C68.0267 26.0973 68.0838 25.9617 68.198 25.8475C68.3122 25.7333 68.4478 25.6762 68.6048 25.6762H74.7713C76.113 25.6762 77.3121 25.9046 78.3683 26.3614C79.4246 26.8039 80.2668 27.4605 80.8949 28.3312C81.5372 29.2019 81.8798 30.2796 81.9226 31.5643C81.9511 32.1781 81.9654 32.7205 81.9654 33.1916C81.9654 33.6483 81.9511 34.1693 81.9226 34.7546C81.8655 36.0963 81.5372 37.2097 80.9377 38.0947C80.3382 38.9654 79.5174 39.6149 78.4754 40.0431C77.4477 40.4571 76.2486 40.6641 74.8783 40.6641H68.6048ZM73.3795 36.4889H74.7713C75.0853 36.4889 75.3636 36.4318 75.6063 36.3176C75.8632 36.1891 76.0702 35.9964 76.2272 35.7395C76.3842 35.4826 76.4699 35.1543 76.4842 34.7546C76.5127 34.3406 76.527 33.9695 76.527 33.6412C76.5413 33.3129 76.5413 32.9846 76.527 32.6563C76.527 32.3137 76.5127 31.9497 76.4842 31.5643C76.4556 30.9648 76.2629 30.5294 75.9061 30.2582C75.5635 29.987 75.1495 29.8514 74.6642 29.8514H73.3795V36.4889ZM90.7062 40.8782C89.3359 40.8782 88.1226 40.6712 87.0663 40.2572C86.0243 39.8433 85.2107 39.201 84.6254 38.3302C84.0402 37.4595 83.7476 36.3533 83.7476 35.0115V26.2543C83.7476 26.0973 83.8047 25.9617 83.9189 25.8475C84.033 25.7333 84.1687 25.6762 84.3257 25.6762H88.5223C88.6793 25.6762 88.8149 25.7333 88.9291 25.8475C89.0433 25.9617 89.1004 26.0973 89.1004 26.2543V34.9259C89.1004 35.454 89.2288 35.8608 89.4858 36.1463C89.757 36.4318 90.1566 36.5745 90.6848 36.5745C91.2129 36.5745 91.6055 36.4318 91.8624 36.1463C92.1336 35.8608 92.2692 35.454 92.2692 34.9259V26.2543C92.2692 26.0973 92.3263 25.9617 92.4405 25.8475C92.5547 25.7333 92.6903 25.6762 92.8473 25.6762H97.0439C97.2009 25.6762 97.3365 25.7333 97.4507 25.8475C97.5649 25.9617 97.622 26.0973 97.622 26.2543V35.0115C97.622 36.3533 97.3294 37.4595 96.7442 38.3302C96.1589 39.201 95.3453 39.8433 94.3033 40.2572C93.2613 40.6712 92.0622 40.8782 90.7062 40.8782ZM100.429 40.6641C100.272 40.6641 100.136 40.607 100.022 40.4928C99.9079 40.3786 99.8508 40.243 99.8508 40.086V26.2543C99.8508 26.0973 99.9079 25.9617 100.022 25.8475C100.136 25.7333 100.272 25.6762 100.429 25.6762H103.812C104.097 25.6762 104.304 25.7405 104.433 25.8689C104.561 25.9974 104.647 26.0973 104.69 26.1687L108.308 32.0996V26.2543C108.308 26.0973 108.365 25.9617 108.479 25.8475C108.594 25.7333 108.729 25.6762 108.886 25.6762H112.762C112.919 25.6762 113.054 25.7333 113.169 25.8475C113.283 25.9617 113.34 26.0973 113.34 26.2543V40.086C113.34 40.243 113.283 40.3786 113.169 40.4928C113.054 40.607 112.919 40.6641 112.762 40.6641H109.379C109.093 40.6641 108.886 40.5998 108.758 40.4714C108.629 40.3286 108.544 40.2287 108.501 40.1716L104.882 34.7118V40.086C104.882 40.243 104.825 40.3786 104.711 40.4928C104.597 40.607 104.461 40.6641 104.304 40.6641H100.429ZM122.53 40.8782C121.089 40.8782 119.84 40.6641 118.783 40.2358C117.727 39.8076 116.899 39.1581 116.3 38.2874C115.7 37.4167 115.372 36.3176 115.315 34.9901C115.3 34.4049 115.293 33.7697 115.293 33.0845C115.293 32.3993 115.3 31.7499 115.315 31.1361C115.372 29.8657 115.7 28.8165 116.3 27.9886C116.913 27.1465 117.756 26.5184 118.826 26.1045C119.897 25.6762 121.131 25.4621 122.53 25.4621C123.658 25.4621 124.671 25.5906 125.571 25.8475C126.47 26.0902 127.241 26.4328 127.883 26.8753C128.525 27.3178 129.018 27.8316 129.36 28.4169C129.703 28.9878 129.881 29.5945 129.896 30.2368C129.896 30.3653 129.846 30.4795 129.746 30.5794C129.66 30.665 129.553 30.7079 129.425 30.7079H124.693C124.536 30.7079 124.407 30.6864 124.307 30.6436C124.222 30.6008 124.143 30.5437 124.072 30.4723C124.015 30.401 123.929 30.301 123.815 30.1726C123.715 30.0298 123.565 29.9085 123.365 29.8086C123.165 29.6944 122.887 29.6373 122.53 29.6373C122.002 29.6373 121.602 29.7729 121.331 30.0441C121.06 30.301 120.91 30.7007 120.882 31.2431C120.839 32.4279 120.839 33.6412 120.882 34.883C120.91 35.5254 121.074 35.9893 121.374 36.2748C121.674 36.5603 122.088 36.703 122.616 36.703C122.973 36.703 123.287 36.653 123.558 36.5531C123.829 36.4532 124.043 36.289 124.2 36.0607C124.357 35.8323 124.436 35.5397 124.436 35.1828V35.1614H123.43C123.273 35.1614 123.137 35.1043 123.023 34.9901C122.909 34.8759 122.851 34.7403 122.851 34.5833V32.2066C122.851 32.0496 122.909 31.914 123.023 31.7998C123.137 31.6856 123.273 31.6285 123.43 31.6285H129.318C129.475 31.6285 129.61 31.6856 129.724 31.7998C129.839 31.914 129.896 32.0496 129.896 32.2066V34.9901C129.896 36.2748 129.582 37.3525 128.954 38.2232C128.326 39.0939 127.455 39.7577 126.341 40.2144C125.242 40.6569 123.972 40.8782 122.53 40.8782ZM132.399 40.6641C132.242 40.6641 132.107 40.607 131.992 40.4928C131.878 40.3786 131.821 40.243 131.821 40.086V26.2543C131.821 26.0973 131.878 25.9617 131.992 25.8475C132.107 25.7333 132.242 25.6762 132.399 25.6762H143.383C143.54 25.6762 143.676 25.7333 143.79 25.8475C143.904 25.9617 143.961 26.0973 143.961 26.2543V29.2733C143.961 29.4303 143.904 29.5659 143.79 29.6801C143.676 29.7943 143.54 29.8514 143.383 29.8514H136.96V31.2003H142.912C143.069 31.2003 143.205 31.2574 143.319 31.3716C143.433 31.4858 143.49 31.6214 143.49 31.7784V34.5619C143.49 34.7189 143.433 34.8545 143.319 34.9687C143.205 35.0829 143.069 35.14 142.912 35.14H136.96V36.4889H143.555C143.712 36.4889 143.847 36.546 143.961 36.6602C144.076 36.7744 144.133 36.91 144.133 37.067V40.086C144.133 40.243 144.076 40.3786 143.961 40.4928C143.847 40.607 143.712 40.6641 143.555 40.6641H132.399ZM152.764 40.8782C151.365 40.8782 150.137 40.6641 149.081 40.2358C148.039 39.8076 147.211 39.1653 146.597 38.3088C145.998 37.4381 145.669 36.3676 145.612 35.0972C145.598 34.5119 145.591 33.891 145.591 33.2344C145.591 32.5778 145.598 31.9426 145.612 31.3288C145.669 30.0727 145.998 29.0092 146.597 28.1385C147.197 27.2678 148.025 26.604 149.081 26.1473C150.137 25.6905 151.365 25.4621 152.764 25.4621C154.163 25.4621 155.39 25.6905 156.446 26.1473C157.503 26.604 158.331 27.2678 158.93 28.1385C159.544 29.0092 159.872 30.0727 159.915 31.3288C159.944 31.9426 159.958 32.5778 159.958 33.2344C159.958 33.891 159.944 34.5119 159.915 35.0972C159.858 36.3676 159.522 37.4381 158.909 38.3088C158.309 39.1653 157.481 39.8076 156.425 40.2358C155.383 40.6641 154.163 40.8782 152.764 40.8782ZM152.764 36.703C153.235 36.703 153.613 36.5674 153.898 36.2962C154.184 36.0107 154.334 35.5682 154.348 34.9687C154.377 34.3549 154.391 33.7482 154.391 33.1487C154.391 32.5492 154.377 31.9568 154.348 31.3716C154.334 30.9719 154.255 30.6436 154.113 30.3867C153.984 30.1298 153.806 29.9442 153.577 29.83C153.349 29.7015 153.078 29.6373 152.764 29.6373C152.464 29.6373 152.193 29.7015 151.95 29.83C151.722 29.9442 151.536 30.1298 151.393 30.3867C151.265 30.6436 151.194 30.9719 151.179 31.3716C151.165 31.9568 151.158 32.5492 151.158 33.1487C151.158 33.7482 151.165 34.3549 151.179 34.9687C151.208 35.5682 151.358 36.0107 151.629 36.2962C151.914 36.5674 152.293 36.703 152.764 36.703ZM162.467 40.6641C162.31 40.6641 162.174 40.607 162.06 40.4928C161.946 40.3786 161.889 40.243 161.889 40.086V26.2543C161.889 26.0973 161.946 25.9617 162.06 25.8475C162.174 25.7333 162.31 25.6762 162.467 25.6762H165.85C166.135 25.6762 166.342 25.7405 166.471 25.8689C166.599 25.9974 166.685 26.0973 166.728 26.1687L170.346 32.0996V26.2543C170.346 26.0973 170.403 25.9617 170.518 25.8475C170.632 25.7333 170.767 25.6762 170.924 25.6762H174.8C174.957 25.6762 175.092 25.7333 175.207 25.8475C175.321 25.9617 175.378 26.0973 175.378 26.2543V40.086C175.378 40.243 175.321 40.3786 175.207 40.4928C175.092 40.607 174.957 40.6641 174.8 40.6641H171.417C171.131 40.6641 170.924 40.5998 170.796 40.4714C170.667 40.3286 170.582 40.2287 170.539 40.1716L166.92 34.7118V40.086C166.92 40.243 166.863 40.3786 166.749 40.4928C166.635 40.607 166.499 40.6641 166.342 40.6641H162.467Z" fill="white"/>
<path d="M67.8291 63.1289V53.0489H73.7091V54.2949H69.0751V57.4659H72.8691V58.7119H69.0751V63.1289H67.8291ZM75.1058 54.2319V52.9439H76.3518V54.2319H75.1058ZM75.1058 63.1289V55.5689H76.3518V63.1289H75.1058ZM78.4522 63.1289V55.5689H79.5652V57.3959L79.3832 57.1579C79.4718 56.9246 79.5862 56.7099 79.7262 56.5139C79.8708 56.3179 80.0318 56.1569 80.2092 56.0309C80.4052 55.8722 80.6268 55.7509 80.8742 55.6669C81.1215 55.5829 81.3735 55.5339 81.6302 55.5199C81.8868 55.5012 82.1272 55.5176 82.3512 55.5689V56.7379C82.0898 56.6679 81.8028 56.6492 81.4902 56.6819C81.1775 56.7146 80.8882 56.8289 80.6222 57.0249C80.3795 57.1976 80.1905 57.4076 80.0552 57.6549C79.9245 57.9022 79.8335 58.1706 79.7822 58.4599C79.7308 58.7446 79.7052 59.0362 79.7052 59.3349V63.1289H78.4522ZM86.2574 63.3319C85.3567 63.3319 84.6171 63.1359 84.0384 62.7439C83.4644 62.3472 83.1121 61.7942 82.9814 61.0849L84.2554 60.8819C84.3581 61.2926 84.5937 61.6192 84.9624 61.8619C85.3311 62.0999 85.7884 62.2189 86.3344 62.2189C86.8524 62.2189 87.2584 62.1116 87.5524 61.8969C87.8464 61.6822 87.9934 61.3906 87.9934 61.0219C87.9934 60.8072 87.9444 60.6346 87.8464 60.5039C87.7484 60.3686 87.5454 60.2426 87.2374 60.1259C86.9341 60.0092 86.4744 59.8692 85.8584 59.7059C85.1911 59.5286 84.6661 59.3442 84.2834 59.1529C83.9007 58.9616 83.6277 58.7399 83.4644 58.4879C83.3011 58.2359 83.2194 57.9302 83.2194 57.5709C83.2194 57.1276 83.3407 56.7402 83.5834 56.4089C83.8261 56.0729 84.1644 55.8139 84.5984 55.6319C85.0371 55.4499 85.5457 55.3589 86.1244 55.3589C86.6984 55.3589 87.2117 55.4499 87.6644 55.6319C88.1171 55.8139 88.4811 56.0729 88.7564 56.4089C89.0364 56.7402 89.2021 57.1276 89.2534 57.5709L87.9794 57.8019C87.9187 57.3959 87.7227 57.0762 87.3914 56.8429C87.0647 56.6096 86.6424 56.4859 86.1244 56.4719C85.6344 56.4532 85.2354 56.5396 84.9274 56.7309C84.6241 56.9222 84.4724 57.1812 84.4724 57.5079C84.4724 57.6899 84.5284 57.8462 84.6404 57.9769C84.7571 58.1076 84.9694 58.2312 85.2774 58.3479C85.5901 58.4646 86.0427 58.5976 86.6354 58.7469C87.3027 58.9149 87.8277 59.0992 88.2104 59.2999C88.5977 59.4959 88.8731 59.7292 89.0364 59.9999C89.1997 60.2659 89.2814 60.5949 89.2814 60.9869C89.2814 61.7149 89.0131 62.2889 88.4764 62.7089C87.9397 63.1242 87.2001 63.3319 86.2574 63.3319ZM95.0462 63.1289C94.5982 63.2176 94.1549 63.2526 93.7162 63.2339C93.2822 63.2199 92.8949 63.1336 92.5542 62.9749C92.2135 62.8116 91.9545 62.5596 91.7772 62.2189C91.6279 61.9202 91.5462 61.6192 91.5322 61.3159C91.5229 61.0079 91.5182 60.6602 91.5182 60.2729V53.4689H92.7642V60.2169C92.7642 60.5249 92.7665 60.7886 92.7712 61.0079C92.7805 61.2272 92.8295 61.4162 92.9182 61.5749C93.0862 61.8736 93.3522 62.0486 93.7162 62.0999C94.0849 62.1512 94.5282 62.1372 95.0462 62.0579V63.1289ZM89.9852 56.5979V55.5689H95.0462V56.5979H89.9852ZM103.528 63.3389C102.524 63.3389 101.673 63.1172 100.973 62.6739C100.273 62.2306 99.7385 61.6146 99.3698 60.8259C99.0058 60.0372 98.8238 59.1249 98.8238 58.0889C98.8238 57.0529 99.0058 56.1406 99.3698 55.3519C99.7385 54.5632 100.273 53.9472 100.973 53.5039C101.673 53.0606 102.524 52.8389 103.528 52.8389C104.536 52.8389 105.39 53.0606 106.09 53.5039C106.79 53.9472 107.322 54.5632 107.686 55.3519C108.05 56.1406 108.232 57.0529 108.232 58.0889C108.232 59.1249 108.05 60.0372 107.686 60.8259C107.322 61.6146 106.79 62.2306 106.09 62.6739C105.39 63.1172 104.536 63.3389 103.528 63.3389ZM103.528 62.1489C104.279 62.1536 104.904 61.9856 105.404 61.6449C105.908 61.2996 106.283 60.8212 106.531 60.2099C106.783 59.5986 106.909 58.8916 106.909 58.0889C106.909 57.2816 106.783 56.5746 106.531 55.9679C106.283 55.3612 105.908 54.8876 105.404 54.5469C104.904 54.2062 104.279 54.0336 103.528 54.0289C102.776 54.0242 102.151 54.1922 101.652 54.5329C101.157 54.8736 100.784 55.3496 100.532 55.9609C100.28 56.5722 100.151 57.2816 100.147 58.0889C100.142 58.8916 100.266 59.5962 100.518 60.2029C100.77 60.8096 101.145 61.2856 101.645 61.6309C102.149 61.9716 102.776 62.1442 103.528 62.1489ZM115.021 63.1289V59.3419C115.021 58.9826 114.988 58.6372 114.923 58.3059C114.862 57.9746 114.752 57.6782 114.594 57.4169C114.44 57.1509 114.23 56.9409 113.964 56.7869C113.702 56.6329 113.371 56.5559 112.97 56.5559C112.657 56.5559 112.372 56.6096 112.116 56.7169C111.864 56.8196 111.647 56.9782 111.465 57.1929C111.283 57.4076 111.14 57.6782 111.038 58.0049C110.94 58.3269 110.891 58.7072 110.891 59.1459L110.072 58.8939C110.072 58.1612 110.202 57.5336 110.464 57.0109C110.73 56.4836 111.101 56.0799 111.577 55.7999C112.057 55.5152 112.622 55.3729 113.271 55.3729C113.761 55.3729 114.178 55.4499 114.524 55.6039C114.869 55.7579 115.156 55.9632 115.385 56.2199C115.613 56.4719 115.793 56.7566 115.924 57.0739C116.054 57.3866 116.145 57.7062 116.197 58.0329C116.253 58.3549 116.281 58.6606 116.281 58.9499V63.1289H115.021ZM109.631 63.1289V55.5689H110.751V57.5919H110.891V63.1289H109.631ZM121.217 63.3389C120.452 63.3389 119.801 63.1686 119.264 62.8279C118.732 62.4826 118.326 62.0089 118.046 61.4069C117.766 60.8049 117.622 60.1189 117.612 59.3489C117.622 58.5602 117.769 57.8672 118.053 57.2699C118.343 56.6679 118.756 56.1989 119.292 55.8629C119.829 55.5269 120.475 55.3589 121.231 55.3589C122.029 55.3589 122.715 55.5549 123.289 55.9469C123.868 56.3389 124.255 56.8756 124.451 57.5569L123.219 57.9279C123.061 57.4892 122.802 57.1486 122.442 56.9059C122.088 56.6632 121.679 56.5419 121.217 56.5419C120.699 56.5419 120.272 56.6632 119.936 56.9059C119.6 57.1439 119.351 57.4752 119.187 57.8999C119.024 58.3199 118.94 58.8029 118.935 59.3489C118.945 60.1889 119.138 60.8679 119.516 61.3859C119.899 61.8992 120.466 62.1559 121.217 62.1559C121.712 62.1559 122.123 62.0439 122.449 61.8199C122.776 61.5912 123.023 61.2622 123.191 60.8329L124.451 61.1619C124.19 61.8666 123.782 62.4056 123.226 62.7789C122.671 63.1522 122.001 63.3389 121.217 63.3389ZM131.263 63.1289V59.3419C131.263 58.9826 131.23 58.6372 131.165 58.3059C131.104 57.9746 130.995 57.6782 130.836 57.4169C130.682 57.1509 130.472 56.9409 130.206 56.7869C129.945 56.6329 129.613 56.5559 129.212 56.5559C128.899 56.5559 128.615 56.6096 128.358 56.7169C128.106 56.8196 127.889 56.9782 127.707 57.1929C127.525 57.4076 127.383 57.6782 127.28 58.0049C127.182 58.3269 127.133 58.7072 127.133 59.1459L126.314 58.8939C126.314 58.1612 126.445 57.5336 126.706 57.0109C126.972 56.4836 127.343 56.0799 127.819 55.7999C128.3 55.5152 128.864 55.3729 129.513 55.3729C130.003 55.3729 130.421 55.4499 130.766 55.6039C131.111 55.7579 131.398 55.9632 131.627 56.2199C131.856 56.4719 132.035 56.7566 132.166 57.0739C132.297 57.3866 132.388 57.7062 132.439 58.0329C132.495 58.3549 132.523 58.6606 132.523 58.9499V63.1289H131.263ZM125.873 63.1289V53.0489H126.993V58.6139H127.133V63.1289H125.873ZM136.492 63.3389C135.927 63.3389 135.453 63.2362 135.071 63.0309C134.693 62.8209 134.406 62.5456 134.21 62.2049C134.018 61.8642 133.923 61.4909 133.923 61.0849C133.923 60.6882 133.997 60.3452 134.147 60.0559C134.301 59.7619 134.515 59.5192 134.791 59.3279C135.066 59.1319 135.395 58.9779 135.778 58.8659C136.137 58.7679 136.538 58.6839 136.982 58.6139C137.43 58.5392 137.882 58.4716 138.34 58.4109C138.797 58.3502 139.224 58.2919 139.621 58.2359L139.173 58.4949C139.187 57.8229 139.051 57.3259 138.767 57.0039C138.487 56.6819 138.001 56.5209 137.311 56.5209C136.853 56.5209 136.452 56.6259 136.107 56.8359C135.766 57.0412 135.526 57.3772 135.386 57.8439L134.203 57.4869C134.385 56.8242 134.737 56.3039 135.26 55.9259C135.782 55.5479 136.471 55.3589 137.325 55.3589C138.011 55.3589 138.599 55.4826 139.089 55.7299C139.583 55.9726 139.938 56.3412 140.153 56.8359C140.26 57.0692 140.328 57.3236 140.356 57.5989C140.384 57.8696 140.398 58.1542 140.398 58.4529V63.1289H139.292V61.3159L139.551 61.4839C139.266 62.0952 138.867 62.5572 138.354 62.8699C137.845 63.1826 137.224 63.3389 136.492 63.3389ZM136.681 62.2959C137.129 62.2959 137.516 62.2166 137.843 62.0579C138.174 61.8946 138.44 61.6822 138.641 61.4209C138.841 61.1549 138.972 60.8656 139.033 60.5529C139.103 60.3196 139.14 60.0606 139.145 59.7759C139.154 59.4866 139.159 59.2649 139.159 59.1109L139.593 59.2999C139.187 59.3559 138.788 59.4096 138.396 59.4609C138.004 59.5122 137.633 59.5682 137.283 59.6289C136.933 59.6849 136.618 59.7526 136.338 59.8319C136.132 59.8972 135.939 59.9812 135.757 60.0839C135.579 60.1866 135.435 60.3196 135.323 60.4829C135.215 60.6416 135.162 60.8399 135.162 61.0779C135.162 61.2832 135.213 61.4792 135.316 61.6659C135.423 61.8526 135.586 62.0042 135.806 62.1209C136.03 62.2376 136.321 62.2959 136.681 62.2959ZM142.358 54.2319V52.9439H143.604V54.2319H142.358ZM142.358 63.1289V55.5689H143.604V63.1289H142.358ZM151.087 63.1289V59.3419C151.087 58.9826 151.054 58.6372 150.989 58.3059C150.928 57.9746 150.819 57.6782 150.66 57.4169C150.506 57.1509 150.296 56.9409 150.03 56.7869C149.769 56.6329 149.437 56.5559 149.036 56.5559C148.723 56.5559 148.439 56.6096 148.182 56.7169C147.93 56.8196 147.713 56.9782 147.531 57.1929C147.349 57.4076 147.207 57.6782 147.104 58.0049C147.006 58.3269 146.957 58.7072 146.957 59.1459L146.138 58.8939C146.138 58.1612 146.269 57.5336 146.53 57.0109C146.796 56.4836 147.167 56.0799 147.643 55.7999C148.124 55.5152 148.688 55.3729 149.337 55.3729C149.827 55.3729 150.245 55.4499 150.59 55.6039C150.935 55.7579 151.222 55.9632 151.451 56.2199C151.68 56.4719 151.859 56.7566 151.99 57.0739C152.121 57.3866 152.212 57.7062 152.263 58.0329C152.319 58.3549 152.347 58.6606 152.347 58.9499V63.1289H151.087ZM145.697 63.1289V55.5689H146.817V57.5919H146.957V63.1289H145.697ZM161.051 63.3389C160.36 63.3389 159.73 63.2176 159.161 62.9749C158.591 62.7322 158.101 62.3846 157.691 61.9319C157.28 61.4746 156.963 60.9239 156.739 60.2799C156.519 59.6312 156.41 58.9009 156.41 58.0889C156.41 57.0156 156.601 56.0869 156.984 55.3029C157.366 54.5189 157.905 53.9146 158.601 53.4899C159.296 53.0606 160.113 52.8459 161.051 52.8459C162.18 52.8459 163.09 53.1096 163.781 53.6369C164.471 54.1596 164.947 54.8759 165.209 55.7859L163.949 56.0449C163.739 55.4336 163.393 54.9459 162.913 54.5819C162.432 54.2179 161.832 54.0359 161.114 54.0359C160.362 54.0312 159.737 54.1992 159.238 54.5399C158.743 54.8759 158.37 55.3496 158.118 55.9609C157.866 56.5722 157.737 57.2816 157.733 58.0889C157.728 58.8916 157.852 59.5962 158.104 60.2029C158.356 60.8096 158.731 61.2856 159.231 61.6309C159.735 61.9716 160.362 62.1442 161.114 62.1489C161.762 62.1536 162.308 62.0299 162.752 61.7779C163.195 61.5259 163.538 61.1619 163.781 60.6859C164.023 60.2099 164.17 59.6382 164.222 58.9709H162.08V57.9419H165.538C165.552 58.0352 165.559 58.1472 165.559 58.2779C165.563 58.4039 165.566 58.4902 165.566 58.5369C165.566 59.4562 165.393 60.2799 165.048 61.0079C164.707 61.7312 164.201 62.3006 163.529 62.7159C162.861 63.1312 162.035 63.3389 161.051 63.3389ZM169.113 63.3389C168.548 63.3389 168.075 63.2362 167.692 63.0309C167.314 62.8209 167.027 62.5456 166.831 62.2049C166.64 61.8642 166.544 61.4909 166.544 61.0849C166.544 60.6882 166.619 60.3452 166.768 60.0559C166.922 59.7619 167.137 59.5192 167.412 59.3279C167.687 59.1319 168.016 58.9779 168.399 58.8659C168.758 58.7679 169.16 58.6839 169.603 58.6139C170.051 58.5392 170.504 58.4716 170.961 58.4109C171.418 58.3502 171.845 58.2919 172.242 58.2359L171.794 58.4949C171.808 57.8229 171.673 57.3259 171.388 57.0039C171.108 56.6819 170.623 56.5209 169.932 56.5209C169.475 56.5209 169.073 56.6259 168.728 56.8359C168.387 57.0412 168.147 57.3772 168.007 57.8439L166.824 57.4869C167.006 56.8242 167.358 56.3039 167.881 55.9259C168.404 55.5479 169.092 55.3589 169.946 55.3589C170.632 55.3589 171.22 55.4826 171.71 55.7299C172.205 55.9726 172.559 56.3412 172.774 56.8359C172.881 57.0692 172.949 57.3236 172.977 57.5989C173.005 57.8696 173.019 58.1542 173.019 58.4529V63.1289H171.913V61.3159L172.172 61.4839C171.887 62.0952 171.488 62.5572 170.975 62.8699C170.466 63.1826 169.846 63.3389 169.113 63.3389ZM169.302 62.2959C169.75 62.2959 170.137 62.2166 170.464 62.0579C170.795 61.8946 171.061 61.6822 171.262 61.4209C171.463 61.1549 171.593 60.8656 171.654 60.5529C171.724 60.3196 171.761 60.0606 171.766 59.7759C171.775 59.4866 171.78 59.2649 171.78 59.1109L172.214 59.2999C171.808 59.3559 171.409 59.4096 171.017 59.4609C170.625 59.5122 170.254 59.5682 169.904 59.6289C169.554 59.6849 169.239 59.7526 168.959 59.8319C168.754 59.8972 168.56 59.9812 168.378 60.0839C168.201 60.1866 168.056 60.3196 167.944 60.4829C167.837 60.6416 167.783 60.8399 167.783 61.0779C167.783 61.2832 167.834 61.4792 167.937 61.6659C168.044 61.8526 168.208 62.0042 168.427 62.1209C168.651 62.2376 168.943 62.2959 169.302 62.2959ZM183.876 63.1289L183.883 58.2919C183.883 57.7272 183.731 57.2862 183.428 56.9689C183.129 56.6469 182.74 56.4859 182.259 56.4859C181.979 56.4859 181.713 56.5512 181.461 56.6819C181.209 56.8079 181.004 57.0086 180.845 57.2839C180.686 57.5546 180.607 57.9022 180.607 58.3269L179.949 58.0609C179.94 57.5242 180.049 57.0552 180.278 56.6539C180.511 56.2479 180.829 55.9329 181.23 55.7089C181.631 55.4849 182.084 55.3729 182.588 55.3729C183.377 55.3729 183.997 55.6132 184.45 56.0939C184.903 56.5699 185.129 57.2116 185.129 58.0189L185.122 63.1289H183.876ZM174.832 63.1289V55.5689H175.945V57.5919H176.085V63.1289H174.832ZM179.361 63.1289L179.368 58.3409C179.368 57.7622 179.219 57.3096 178.92 56.9829C178.621 56.6516 178.225 56.4859 177.73 56.4859C177.24 56.4859 176.843 56.6539 176.54 56.9899C176.237 57.3259 176.085 57.7716 176.085 58.3269L175.427 57.9349C175.427 57.4449 175.544 57.0062 175.777 56.6189C176.01 56.2316 176.328 55.9282 176.729 55.7089C177.13 55.4849 177.585 55.3729 178.094 55.3729C178.603 55.3729 179.046 55.4802 179.424 55.6949C179.802 55.9096 180.094 56.2176 180.299 56.6189C180.504 57.0156 180.607 57.4892 180.607 58.0399L180.6 63.1289H179.361ZM190.16 63.3389C189.418 63.3389 188.769 63.1756 188.214 62.8489C187.663 62.5176 187.234 62.0579 186.926 61.4699C186.618 60.8772 186.464 60.1866 186.464 59.3979C186.464 58.5719 186.615 57.8579 186.919 57.2559C187.222 56.6492 187.644 56.1826 188.186 55.8559C188.732 55.5246 189.371 55.3589 190.104 55.3589C190.864 55.3589 191.511 55.5339 192.043 55.8839C192.579 56.2339 192.981 56.7332 193.247 57.3819C193.517 58.0306 193.634 58.8029 193.597 59.6989H192.337V59.2509C192.323 58.3222 192.134 57.6292 191.77 57.1719C191.406 56.7099 190.864 56.4789 190.146 56.4789C189.376 56.4789 188.79 56.7262 188.389 57.2209C187.987 57.7156 187.787 58.4249 187.787 59.3489C187.787 60.2402 187.987 60.9309 188.389 61.4209C188.79 61.9109 189.362 62.1559 190.104 62.1559C190.603 62.1559 191.037 62.0416 191.406 61.8129C191.774 61.5842 192.064 61.2552 192.274 60.8259L193.471 61.2389C193.177 61.9062 192.733 62.4242 192.141 62.7929C191.553 63.1569 190.892 63.3389 190.16 63.3389ZM187.367 59.6989V58.6979H192.953V59.6989H187.367Z" fill="#84899A"/>
</svg>
