<svg width="195" height="68" viewBox="0 0 195 68" fill="none" xmlns="http://www.w3.org/2000/svg">
<path d="M51.4049 42.957V10.3905C51.4049 7.08896 51.4049 5.43821 50.7624 4.17721C50.1972 3.068 49.2954 2.16618 48.1862 1.60101C46.9252 0.958496 45.2744 0.958496 41.9729 0.958496H26.1736H10.3743C7.07285 0.958496 5.4221 0.958496 4.1611 1.60101C3.05189 2.16618 2.15007 3.068 1.5849 4.17721C0.942383 5.43821 0.942383 7.08896 0.942383 10.3905V42.957C0.942383 45.2092 0.942383 46.3353 1.25668 47.3544C1.53489 48.2565 1.99078 49.0939 2.59751 49.8171C3.28293 50.6341 4.22878 51.2453 6.12049 52.4675L9.60021 54.7158C10.5951 55.3586 11.0925 55.68 11.5324 55.6671C11.9167 55.6559 12.2798 55.4888 12.5384 55.2043C12.8344 54.8787 12.914 54.2918 13.0732 53.1181L13.6083 49.1732C13.9047 46.9883 14.0529 45.8958 14.3238 45.7189C14.5561 45.5673 14.8555 45.5654 15.0897 45.7139C15.3629 45.8872 15.5254 46.9777 15.8503 49.1586L16.8037 55.5588L16.8037 55.5589C17.0348 57.1108 17.1504 57.8868 17.4462 58.5813C17.7084 59.1968 18.0734 59.7631 18.5256 60.256C19.036 60.8122 19.6949 61.238 21.0128 62.0895L21.0129 62.0896L24.1274 64.1019L24.1275 64.1019C24.8684 64.5806 25.2388 64.8199 25.6377 64.9131C25.9902 64.9954 26.3571 64.9954 26.7096 64.9131C27.1085 64.8199 27.4789 64.5806 28.2198 64.1019L28.2199 64.1019L30.7681 62.4554L30.7682 62.4554C31.8886 61.7315 32.4488 61.3695 32.9238 60.9199C33.3453 60.5209 33.7162 60.0716 34.028 59.582C34.3793 59.0304 34.6284 58.4117 35.1267 57.1742L36.8169 52.9767C37.1412 52.1714 37.3033 51.7688 37.5362 51.6481C37.7382 51.5434 37.9782 51.5422 38.1812 51.645C38.4153 51.7634 38.5813 52.1644 38.9134 52.9665L39.2546 53.7906C39.6115 54.6526 39.79 55.0837 40.0925 55.3149C40.3578 55.5178 40.6864 55.6202 41.0201 55.6042C41.4004 55.5859 41.7922 55.3327 42.5759 54.8264L46.2268 52.4675C48.1185 51.2453 49.0644 50.6341 49.7498 49.8171C50.3565 49.0939 50.8124 48.2565 51.0906 47.3544C51.4049 46.3353 51.4049 45.2092 51.4049 42.957Z" fill="#0A1335"/>
<path d="M16.1376 15.3132C16.0816 14.3932 16.8126 13.6162 17.7344 13.6162H20.938C21.8215 13.6162 22.5377 14.3324 22.5377 15.2159V38.9114C22.5377 39.7949 21.8215 40.5111 20.938 40.5111H17.3382C16.4181 40.5111 15.6877 39.7369 15.7412 38.8184L16.0083 34.2328C16.0249 33.9475 16.1537 33.6804 16.3667 33.4898C16.6243 33.2591 16.6356 32.8594 16.3913 32.6146L16.3788 32.6021C16.1592 32.382 16.0418 32.08 16.0551 31.7693L16.1533 29.4699L16.0342 27.0637L16.2785 17.6259L16.1376 15.3132Z" fill="white"/>
<path d="M16.6868 17.6943C16.235 16.9117 16.5205 15.9105 17.3172 15.484L20.2484 13.915C20.9852 13.5206 21.9013 13.7597 22.3514 14.4639L23.3138 15.9699L25.1578 19.8657L27.0758 23.0687C27.1638 23.2157 27.2276 23.3757 27.2649 23.5429L27.3672 24.0023C27.3874 24.0934 27.4178 24.1819 27.4576 24.2662L27.5066 24.3701C27.6064 24.5818 27.7803 24.7495 27.9955 24.8416C28.1779 24.9198 28.3316 25.0527 28.4351 25.222L29.2326 26.5255C29.2876 26.6153 29.3336 26.7103 29.3698 26.8091L34.3943 40.4969L33.7027 40.5524C33.585 40.5618 33.4665 40.5582 33.3496 40.5416L32.0134 40.3516C31.7508 40.3143 31.4831 40.3474 31.2375 40.4475C30.5841 40.714 29.8333 40.4879 29.4357 39.905L28.4373 38.4411C28.3733 38.3472 28.3194 38.2468 28.2767 38.1415L27.6616 36.6266L26.7032 34.9614L24.9512 32.1318L23.0326 28.6856L16.6868 17.6943Z" fill="white"/>
<path d="M29.1973 14.7746C29.1973 14.159 29.736 13.6822 30.3471 13.757L32.4322 13.8323L33.9955 13.729C34.9185 13.6679 35.7007 14.4002 35.7007 15.3252V18.7699C35.7007 18.8945 35.6862 19.0187 35.6573 19.14L35.2912 20.6798C35.2124 21.0111 35.2415 21.359 35.3741 21.6727L35.5745 22.1469C35.6578 22.3439 35.7007 22.5557 35.7007 22.7697V27.2513L35.3632 31.5184L35.6454 39.0377C35.6756 39.8424 35.0315 40.5111 34.2263 40.5111C34.1256 40.5111 34.0252 40.5004 33.9268 40.4792L32.362 40.1416C32.0118 40.0661 31.6464 40.1103 31.3243 40.2671L31.095 40.3788C30.9161 40.4659 30.7197 40.5111 30.5208 40.5111C29.7918 40.5111 29.2027 39.9166 29.2094 39.1876L29.3514 23.67L29.1973 21.0122L29.339 19.1224C29.3473 19.0126 29.3476 18.9024 29.3401 18.7925L29.1973 16.7023V14.7746Z" fill="white"/>
<path d="M29.7688 7.59912L30.8576 11.0633L25.394 18.4139L24.5798 18.7634L21.3548 22.6739L19.9478 23.2834L22.5019 20.0567L24.3971 16.3751L29.7688 7.59912Z" fill="#0A1335"/>
<path d="M28.0098 32.2095L27.4342 34.4982L26.8249 35.4243L26.2156 36.3504L25.8323 33.5695L26.5168 33.6739L27.5294 32.364L28.0098 32.2095Z" fill="#0A1335"/>
<path d="M68.5892 19.9585C68.4322 19.9585 68.2966 19.9014 68.1824 19.7872C68.0682 19.673 68.0111 19.5374 68.0111 19.3804V5.54877C68.0111 5.39175 68.0682 5.25615 68.1824 5.14195C68.2966 5.02776 68.4322 4.97066 68.5892 4.97066H71.9722C72.2577 4.97066 72.4646 5.0349 72.5931 5.16337C72.7216 5.29183 72.8072 5.39175 72.85 5.46312L76.4685 11.394V5.54877C76.4685 5.39175 76.5256 5.25615 76.6398 5.14195C76.754 5.02776 76.8896 4.97066 77.0466 4.97066H80.9221C81.0791 4.97066 81.2147 5.02776 81.3289 5.14195C81.4431 5.25615 81.5002 5.39175 81.5002 5.54877V19.3804C81.5002 19.5374 81.4431 19.673 81.3289 19.7872C81.2147 19.9014 81.0791 19.9585 80.9221 19.9585H77.5391C77.2536 19.9585 77.0466 19.8943 76.9182 19.7658C76.7897 19.6231 76.7041 19.5231 76.6612 19.466L73.0427 14.0062V19.3804C73.0427 19.5374 72.9856 19.673 72.8715 19.7872C72.7573 19.9014 72.6217 19.9585 72.4646 19.9585H68.5892ZM84.4385 19.9585C84.2815 19.9585 84.1459 19.9014 84.0317 19.7872C83.9175 19.673 83.8604 19.5374 83.8604 19.3804V5.54877C83.8604 5.39175 83.9175 5.25615 84.0317 5.14195C84.1459 5.02776 84.2815 4.97066 84.4385 4.97066H95.4224C95.5795 4.97066 95.7151 5.02776 95.8293 5.14195C95.9435 5.25615 96.0006 5.39175 96.0006 5.54877V8.56774C96.0006 8.72476 95.9435 8.86036 95.8293 8.97456C95.7151 9.08875 95.5795 9.14585 95.4224 9.14585H88.9991V10.4948H94.9514C95.1084 10.4948 95.244 10.5518 95.3582 10.666C95.4724 10.7802 95.5295 10.9158 95.5295 11.0729V13.8563C95.5295 14.0133 95.4724 14.1489 95.3582 14.2631C95.244 14.3773 95.1084 14.4344 94.9514 14.4344H88.9991V15.7833H95.5937C95.7508 15.7833 95.8864 15.8404 96.0006 15.9546C96.1147 16.0688 96.1718 16.2044 96.1718 16.3614V19.3804C96.1718 19.5374 96.1147 19.673 96.0006 19.7872C95.8864 19.9014 95.7508 19.9585 95.5937 19.9585H84.4385ZM97.4349 19.9585C97.3065 19.9585 97.1923 19.9157 97.0924 19.83C97.0067 19.7301 96.9639 19.6159 96.9639 19.4874C96.9639 19.4304 96.971 19.3804 96.9853 19.3376L101.76 5.67723C101.803 5.52022 101.903 5.3632 102.06 5.20619C102.217 5.04917 102.438 4.97066 102.723 4.97066H107.37C107.655 4.97066 107.876 5.04917 108.033 5.20619C108.19 5.3632 108.29 5.52022 108.333 5.67723L113.108 19.3376C113.122 19.3804 113.129 19.4304 113.129 19.4874C113.129 19.6159 113.079 19.7301 112.979 19.83C112.894 19.9157 112.787 19.9585 112.658 19.9585H108.697C108.426 19.9585 108.226 19.9014 108.098 19.7872C107.984 19.6587 107.905 19.5374 107.862 19.4232L107.348 18.0101H102.745L102.231 19.4232C102.188 19.5374 102.11 19.6587 101.996 19.7872C101.881 19.9014 101.681 19.9585 101.396 19.9585H97.4349ZM103.837 13.8349H106.256L105.036 9.85242L103.837 13.8349ZM114.883 19.9585C114.726 19.9585 114.59 19.9014 114.476 19.7872C114.362 19.673 114.304 19.5374 114.304 19.3804V5.54877C114.304 5.39175 114.362 5.25615 114.476 5.14195C114.59 5.02776 114.726 4.97066 114.883 4.97066H121.22C123.276 4.97066 124.882 5.43457 126.038 6.36239C127.194 7.29021 127.772 8.56061 127.772 10.1736C127.772 11.1299 127.551 11.965 127.108 12.6787C126.68 13.3781 126.131 13.942 125.46 14.3702L128.093 19.2519C128.136 19.3376 128.157 19.4161 128.157 19.4874C128.157 19.6159 128.108 19.7301 128.008 19.83C127.922 19.9157 127.815 19.9585 127.686 19.9585H123.297C123.012 19.9585 122.798 19.8871 122.655 19.7444C122.512 19.6016 122.419 19.4803 122.376 19.3804L120.535 15.2909H119.657V19.3804C119.657 19.5374 119.6 19.673 119.486 19.7872C119.372 19.9014 119.236 19.9585 119.079 19.9585H114.883ZM119.657 11.2227H121.22C121.549 11.2227 121.791 11.1157 121.948 10.9016C122.12 10.6732 122.205 10.4162 122.205 10.1308C122.205 9.84528 122.127 9.58121 121.97 9.33855C121.827 9.08161 121.577 8.95315 121.22 8.95315H119.657V11.2227ZM68.5892 40.9585C68.4322 40.9585 68.2966 40.9014 68.1824 40.7872C68.0682 40.673 68.0111 40.5374 68.0111 40.3804V26.5488C68.0111 26.3918 68.0682 26.2561 68.1824 26.142C68.2966 26.0278 68.4322 25.9707 68.5892 25.9707H74.7556C76.0974 25.9707 77.2964 26.1991 78.3527 26.6558C79.409 27.0983 80.2512 27.7549 80.8792 28.6257C81.5216 29.4964 81.8641 30.5741 81.907 31.8587C81.9355 32.4725 81.9498 33.0149 81.9498 33.486C81.9498 33.9428 81.9355 34.4638 81.907 35.049C81.8499 36.3908 81.5216 37.5042 80.9221 38.3892C80.3225 39.2599 79.5018 39.9093 78.4598 40.3376C77.432 40.7515 76.233 40.9585 74.8627 40.9585H68.5892ZM73.3639 36.7833H74.7556C75.0697 36.7833 75.348 36.7262 75.5907 36.612C75.8476 36.4836 76.0546 36.2909 76.2116 36.0339C76.3686 35.777 76.4543 35.4487 76.4685 35.049C76.4971 34.6351 76.5114 34.2639 76.5114 33.9356C76.5256 33.6073 76.5256 33.279 76.5114 32.9507C76.5114 32.6081 76.4971 32.2441 76.4685 31.8587C76.44 31.2592 76.2473 30.8239 75.8904 30.5527C75.5478 30.2815 75.1339 30.1458 74.6486 30.1458H73.3639V36.7833ZM90.6906 41.1726C89.3203 41.1726 88.107 40.9656 87.0507 40.5517C86.0087 40.1377 85.195 39.4954 84.6098 38.6247C84.0246 37.754 83.7319 36.6477 83.7319 35.3059V26.5488C83.7319 26.3918 83.789 26.2561 83.9032 26.142C84.0174 26.0278 84.153 25.9707 84.31 25.9707H88.5066C88.6637 25.9707 88.7993 26.0278 88.9134 26.142C89.0276 26.2561 89.0847 26.3918 89.0847 26.5488V35.2203C89.0847 35.7484 89.2132 36.1553 89.4701 36.4407C89.7413 36.7262 90.141 36.869 90.6692 36.869C91.1973 36.869 91.5898 36.7262 91.8468 36.4407C92.118 36.1553 92.2536 35.7484 92.2536 35.2203V26.5488C92.2536 26.3918 92.3107 26.2561 92.4249 26.142C92.5391 26.0278 92.6747 25.9707 92.8317 25.9707H97.0283C97.1853 25.9707 97.3209 26.0278 97.4351 26.142C97.5493 26.2561 97.6064 26.3918 97.6064 26.5488V35.3059C97.6064 36.6477 97.3138 37.754 96.7285 38.6247C96.1433 39.4954 95.3297 40.1377 94.2877 40.5517C93.2456 40.9656 92.0466 41.1726 90.6906 41.1726ZM100.413 40.9585C100.256 40.9585 100.121 40.9014 100.006 40.7872C99.8923 40.673 99.8352 40.5374 99.8352 40.3804V26.5488C99.8352 26.3918 99.8923 26.2561 100.006 26.142C100.121 26.0278 100.256 25.9707 100.413 25.9707H103.796C104.082 25.9707 104.289 26.0349 104.417 26.1634C104.546 26.2918 104.631 26.3918 104.674 26.4631L108.293 32.394V26.5488C108.293 26.3918 108.35 26.2561 108.464 26.142C108.578 26.0278 108.714 25.9707 108.871 25.9707H112.746C112.903 25.9707 113.039 26.0278 113.153 26.142C113.267 26.2561 113.324 26.3918 113.324 26.5488V40.3804C113.324 40.5374 113.267 40.673 113.153 40.7872C113.039 40.9014 112.903 40.9585 112.746 40.9585H109.363C109.078 40.9585 108.871 40.8943 108.742 40.7658C108.614 40.6231 108.528 40.5231 108.485 40.466L104.867 35.0062V40.3804C104.867 40.5374 104.81 40.673 104.695 40.7872C104.581 40.9014 104.446 40.9585 104.289 40.9585H100.413ZM122.515 41.1726C121.073 41.1726 119.824 40.9585 118.768 40.5303C117.711 40.102 116.883 39.4526 116.284 38.5819C115.684 37.7111 115.356 36.612 115.299 35.2845C115.285 34.6993 115.278 34.0641 115.278 33.3789C115.278 32.6938 115.285 32.0443 115.299 31.4305C115.356 30.1601 115.684 29.111 116.284 28.2831C116.898 27.4409 117.74 26.8128 118.81 26.3989C119.881 25.9707 121.116 25.7566 122.515 25.7566C123.642 25.7566 124.656 25.885 125.555 26.142C126.454 26.3846 127.225 26.7272 127.867 27.1697C128.51 27.6122 129.002 28.1261 129.345 28.7113C129.687 29.2823 129.866 29.8889 129.88 30.5312C129.88 30.6597 129.83 30.7739 129.73 30.8738C129.645 30.9595 129.537 31.0023 129.409 31.0023H124.677C124.52 31.0023 124.392 30.9809 124.292 30.9381C124.206 30.8952 124.128 30.8381 124.056 30.7668C123.999 30.6954 123.913 30.5955 123.799 30.467C123.699 30.3243 123.549 30.2029 123.35 30.103C123.15 29.9888 122.871 29.9317 122.515 29.9317C121.986 29.9317 121.587 30.0673 121.316 30.3385C121.044 30.5955 120.895 30.9952 120.866 31.5376C120.823 32.7223 120.823 33.9356 120.866 35.1775C120.895 35.8198 121.059 36.2837 121.358 36.5692C121.658 36.8547 122.072 36.9974 122.6 36.9974C122.957 36.9974 123.271 36.9475 123.542 36.8475C123.814 36.7476 124.028 36.5835 124.185 36.3551C124.342 36.1267 124.42 35.8341 124.42 35.4772V35.4558H123.414C123.257 35.4558 123.121 35.3987 123.007 35.2845C122.893 35.1703 122.836 35.0347 122.836 34.8777V32.5011C122.836 32.3441 122.893 32.2085 123.007 32.0943C123.121 31.9801 123.257 31.923 123.414 31.923H129.302C129.459 31.923 129.595 31.9801 129.709 32.0943C129.823 32.2085 129.88 32.3441 129.88 32.5011V35.2845C129.88 36.5692 129.566 37.6469 128.938 38.5176C128.31 39.3883 127.439 40.0521 126.326 40.5089C125.227 40.9514 123.956 41.1726 122.515 41.1726ZM132.384 40.9585C132.227 40.9585 132.091 40.9014 131.977 40.7872C131.863 40.673 131.806 40.5374 131.806 40.3804V26.5488C131.806 26.3918 131.863 26.2561 131.977 26.142C132.091 26.0278 132.227 25.9707 132.384 25.9707H143.368C143.525 25.9707 143.66 26.0278 143.774 26.142C143.889 26.2561 143.946 26.3918 143.946 26.5488V29.5677C143.946 29.7248 143.889 29.8604 143.774 29.9746C143.66 30.0888 143.525 30.1458 143.368 30.1458H136.944V31.4948H142.897C143.054 31.4948 143.189 31.5518 143.303 31.666C143.418 31.7802 143.475 31.9158 143.475 32.0729V34.8563C143.475 35.0133 143.418 35.1489 143.303 35.2631C143.189 35.3773 143.054 35.4344 142.897 35.4344H136.944V36.7833H143.539C143.696 36.7833 143.832 36.8404 143.946 36.9546C144.06 37.0688 144.117 37.2044 144.117 37.3614V40.3804C144.117 40.5374 144.06 40.673 143.946 40.7872C143.832 40.9014 143.696 40.9585 143.539 40.9585H132.384ZM152.748 41.1726C151.349 41.1726 150.122 40.9585 149.065 40.5303C148.023 40.102 147.195 39.4597 146.582 38.6033C145.982 37.7325 145.654 36.662 145.597 35.3916C145.582 34.8063 145.575 34.1854 145.575 33.5288C145.575 32.8722 145.582 32.237 145.597 31.6232C145.654 30.3671 145.982 29.3037 146.582 28.433C147.181 27.5622 148.009 26.8985 149.065 26.4417C150.122 25.9849 151.349 25.7566 152.748 25.7566C154.147 25.7566 155.374 25.9849 156.431 26.4417C157.487 26.8985 158.315 27.5622 158.914 28.433C159.528 29.3037 159.857 30.3671 159.899 31.6232C159.928 32.237 159.942 32.8722 159.942 33.5288C159.942 34.1854 159.928 34.8063 159.899 35.3916C159.842 36.662 159.507 37.7325 158.893 38.6033C158.294 39.4597 157.466 40.102 156.409 40.5303C155.367 40.9585 154.147 41.1726 152.748 41.1726ZM152.748 36.9974C153.219 36.9974 153.597 36.8618 153.883 36.5906C154.168 36.3051 154.318 35.8626 154.332 35.2631C154.361 34.6493 154.375 34.0427 154.375 33.4432C154.375 32.8437 154.361 32.2513 154.332 31.666C154.318 31.2664 154.24 30.9381 154.097 30.6811C153.968 30.4242 153.79 30.2386 153.562 30.1244C153.333 29.996 153.062 29.9317 152.748 29.9317C152.448 29.9317 152.177 29.996 151.934 30.1244C151.706 30.2386 151.52 30.4242 151.378 30.6811C151.249 30.9381 151.178 31.2664 151.164 31.666C151.149 32.2513 151.142 32.8437 151.142 33.4432C151.142 34.0427 151.149 34.6493 151.164 35.2631C151.192 35.8626 151.342 36.3051 151.613 36.5906C151.899 36.8618 152.277 36.9974 152.748 36.9974ZM162.451 40.9585C162.294 40.9585 162.159 40.9014 162.045 40.7872C161.93 40.673 161.873 40.5374 161.873 40.3804V26.5488C161.873 26.3918 161.93 26.2561 162.045 26.142C162.159 26.0278 162.294 25.9707 162.451 25.9707H165.834C166.12 25.9707 166.327 26.0349 166.455 26.1634C166.584 26.2918 166.669 26.3918 166.712 26.4631L170.331 32.394V26.5488C170.331 26.3918 170.388 26.2561 170.502 26.142C170.616 26.0278 170.752 25.9707 170.909 25.9707H174.784C174.941 25.9707 175.077 26.0278 175.191 26.142C175.305 26.2561 175.362 26.3918 175.362 26.5488V40.3804C175.362 40.5374 175.305 40.673 175.191 40.7872C175.077 40.9014 174.941 40.9585 174.784 40.9585H171.401C171.116 40.9585 170.909 40.8943 170.78 40.7658C170.652 40.6231 170.566 40.5231 170.523 40.466L166.905 35.0062V40.3804C166.905 40.5374 166.848 40.673 166.734 40.7872C166.619 40.9014 166.484 40.9585 166.327 40.9585H162.451Z" fill="#0A1335"/>
<path d="M67.8135 63.4238V53.3438H73.6935V54.5898H69.0595V57.7608H72.8535V59.0068H69.0595V63.4238H67.8135ZM75.0902 54.5268V53.2388H76.3362V54.5268H75.0902ZM75.0902 63.4238V55.8638H76.3362V63.4238H75.0902ZM78.4365 63.4238V55.8638H79.5495V57.6908L79.3675 57.4528C79.4562 57.2195 79.5705 57.0048 79.7105 56.8088C79.8552 56.6128 80.0162 56.4518 80.1935 56.3258C80.3895 56.1672 80.6112 56.0458 80.8585 55.9618C81.1059 55.8778 81.3579 55.8288 81.6145 55.8148C81.8712 55.7962 82.1115 55.8125 82.3355 55.8638V57.0328C82.0742 56.9628 81.7872 56.9442 81.4745 56.9768C81.1619 57.0095 80.8725 57.1238 80.6065 57.3198C80.3639 57.4925 80.1749 57.7025 80.0395 57.9498C79.9089 58.1972 79.8179 58.4655 79.7665 58.7548C79.7152 59.0395 79.6895 59.3312 79.6895 59.6298V63.4238H78.4365ZM86.2418 63.6268C85.3411 63.6268 84.6014 63.4308 84.0228 63.0388C83.4488 62.6422 83.0964 62.0892 82.9658 61.3798L84.2398 61.1768C84.3424 61.5875 84.5781 61.9142 84.9468 62.1568C85.3154 62.3948 85.7728 62.5138 86.3188 62.5138C86.8368 62.5138 87.2428 62.4065 87.5368 62.1918C87.8308 61.9772 87.9778 61.6855 87.9778 61.3168C87.9778 61.1022 87.9288 60.9295 87.8308 60.7988C87.7328 60.6635 87.5298 60.5375 87.2218 60.4208C86.9184 60.3042 86.4588 60.1642 85.8428 60.0008C85.1754 59.8235 84.6504 59.6392 84.2678 59.4478C83.8851 59.2565 83.6121 59.0348 83.4488 58.7828C83.2854 58.5308 83.2038 58.2252 83.2038 57.8658C83.2038 57.4225 83.3251 57.0352 83.5678 56.7038C83.8104 56.3678 84.1488 56.1088 84.5828 55.9268C85.0214 55.7448 85.5301 55.6538 86.1088 55.6538C86.6828 55.6538 87.1961 55.7448 87.6488 55.9268C88.1014 56.1088 88.4654 56.3678 88.7408 56.7038C89.0208 57.0352 89.1864 57.4225 89.2378 57.8658L87.9638 58.0968C87.9031 57.6908 87.7071 57.3712 87.3758 57.1378C87.0491 56.9045 86.6268 56.7808 86.1088 56.7668C85.6188 56.7482 85.2198 56.8345 84.9118 57.0258C84.6084 57.2172 84.4568 57.4762 84.4568 57.8028C84.4568 57.9848 84.5128 58.1412 84.6248 58.2718C84.7414 58.4025 84.9538 58.5262 85.2618 58.6428C85.5744 58.7595 86.0271 58.8925 86.6198 59.0418C87.2871 59.2098 87.8121 59.3942 88.1948 59.5948C88.5821 59.7908 88.8574 60.0242 89.0208 60.2948C89.1841 60.5608 89.2658 60.8898 89.2658 61.2818C89.2658 62.0098 88.9974 62.5838 88.4608 63.0038C87.9241 63.4192 87.1844 63.6268 86.2418 63.6268ZM95.0306 63.4238C94.5826 63.5125 94.1393 63.5475 93.7006 63.5288C93.2666 63.5148 92.8793 63.4285 92.5386 63.2698C92.1979 63.1065 91.9389 62.8545 91.7616 62.5138C91.6123 62.2152 91.5306 61.9142 91.5166 61.6108C91.5073 61.3028 91.5026 60.9552 91.5026 60.5678V53.7638H92.7486V60.5118C92.7486 60.8198 92.7509 61.0835 92.7556 61.3028C92.7649 61.5222 92.8139 61.7112 92.9026 61.8698C93.0706 62.1685 93.3366 62.3435 93.7006 62.3948C94.0693 62.4462 94.5126 62.4322 95.0306 62.3528V63.4238ZM89.9696 56.8928V55.8638H95.0306V56.8928H89.9696ZM103.512 63.6338C102.509 63.6338 101.657 63.4122 100.957 62.9688C100.257 62.5255 99.7229 61.9095 99.3542 61.1208C98.9902 60.3322 98.8082 59.4198 98.8082 58.3838C98.8082 57.3478 98.9902 56.4355 99.3542 55.6468C99.7229 54.8582 100.257 54.2422 100.957 53.7988C101.657 53.3555 102.509 53.1338 103.512 53.1338C104.52 53.1338 105.374 53.3555 106.074 53.7988C106.774 54.2422 107.306 54.8582 107.67 55.6468C108.034 56.4355 108.216 57.3478 108.216 58.3838C108.216 59.4198 108.034 60.3322 107.67 61.1208C107.306 61.9095 106.774 62.5255 106.074 62.9688C105.374 63.4122 104.52 63.6338 103.512 63.6338ZM103.512 62.4438C104.264 62.4485 104.889 62.2805 105.388 61.9398C105.892 61.5945 106.268 61.1162 106.515 60.5048C106.767 59.8935 106.893 59.1865 106.893 58.3838C106.893 57.5765 106.767 56.8695 106.515 56.2628C106.268 55.6562 105.892 55.1825 105.388 54.8418C104.889 54.5012 104.264 54.3285 103.512 54.3238C102.761 54.3192 102.136 54.4872 101.636 54.8278C101.142 55.1685 100.768 55.6445 100.516 56.2558C100.264 56.8672 100.136 57.5765 100.131 58.3838C100.127 59.1865 100.25 59.8912 100.502 60.4978C100.754 61.1045 101.13 61.5805 101.629 61.9258C102.133 62.2665 102.761 62.4392 103.512 62.4438ZM115.005 63.4238V59.6368C115.005 59.2775 114.972 58.9322 114.907 58.6008C114.846 58.2695 114.737 57.9732 114.578 57.7118C114.424 57.4458 114.214 57.2358 113.948 57.0818C113.687 56.9278 113.355 56.8508 112.954 56.8508C112.641 56.8508 112.357 56.9045 112.1 57.0118C111.848 57.1145 111.631 57.2732 111.449 57.4878C111.267 57.7025 111.125 57.9732 111.022 58.2998C110.924 58.6218 110.875 59.0022 110.875 59.4408L110.056 59.1888C110.056 58.4562 110.187 57.8285 110.448 57.3058C110.714 56.7785 111.085 56.3748 111.561 56.0948C112.042 55.8102 112.606 55.6678 113.255 55.6678C113.745 55.6678 114.163 55.7448 114.508 55.8988C114.853 56.0528 115.14 56.2582 115.369 56.5148C115.598 56.7668 115.777 57.0515 115.908 57.3688C116.039 57.6815 116.13 58.0012 116.181 58.3278C116.237 58.6498 116.265 58.9555 116.265 59.2448V63.4238H115.005ZM109.615 63.4238V55.8638H110.735V57.8868H110.875V63.4238H109.615ZM121.202 63.6338C120.436 63.6338 119.785 63.4635 119.249 63.1228C118.717 62.7775 118.311 62.3038 118.031 61.7018C117.751 61.0998 117.606 60.4138 117.597 59.6438C117.606 58.8552 117.753 58.1622 118.038 57.5648C118.327 56.9628 118.74 56.4938 119.277 56.1578C119.813 55.8218 120.46 55.6538 121.216 55.6538C122.014 55.6538 122.7 55.8498 123.274 56.2418C123.852 56.6338 124.24 57.1705 124.436 57.8518L123.204 58.2228C123.045 57.7842 122.786 57.4435 122.427 57.2008C122.072 56.9582 121.664 56.8368 121.202 56.8368C120.684 56.8368 120.257 56.9582 119.921 57.2008C119.585 57.4388 119.335 57.7702 119.172 58.1948C119.008 58.6148 118.924 59.0978 118.92 59.6438C118.929 60.4838 119.123 61.1628 119.501 61.6808C119.883 62.1942 120.45 62.4508 121.202 62.4508C121.696 62.4508 122.107 62.3388 122.434 62.1148C122.76 61.8862 123.008 61.5572 123.176 61.1278L124.436 61.4568C124.174 62.1615 123.766 62.7005 123.211 63.0738C122.655 63.4472 121.986 63.6338 121.202 63.6338ZM131.247 63.4238V59.6368C131.247 59.2775 131.215 58.9322 131.149 58.6008C131.089 58.2695 130.979 57.9732 130.82 57.7118C130.666 57.4458 130.456 57.2358 130.19 57.0818C129.929 56.9278 129.598 56.8508 129.196 56.8508C128.884 56.8508 128.599 56.9045 128.342 57.0118C128.09 57.1145 127.873 57.2732 127.691 57.4878C127.509 57.7025 127.367 57.9732 127.264 58.2998C127.166 58.6218 127.117 59.0022 127.117 59.4408L126.298 59.1888C126.298 58.4562 126.429 57.8285 126.69 57.3058C126.956 56.7785 127.327 56.3748 127.803 56.0948C128.284 55.8102 128.849 55.6678 129.497 55.6678C129.987 55.6678 130.405 55.7448 130.75 55.8988C131.096 56.0528 131.383 56.2582 131.611 56.5148C131.84 56.7668 132.02 57.0515 132.15 57.3688C132.281 57.6815 132.372 58.0012 132.423 58.3278C132.479 58.6498 132.507 58.9555 132.507 59.2448V63.4238H131.247ZM125.857 63.4238V53.3438H126.977V58.9088H127.117V63.4238H125.857ZM136.476 63.6338C135.912 63.6338 135.438 63.5312 135.055 63.3258C134.677 63.1158 134.39 62.8405 134.194 62.4998C134.003 62.1592 133.907 61.7858 133.907 61.3798C133.907 60.9832 133.982 60.6402 134.131 60.3508C134.285 60.0568 134.5 59.8142 134.775 59.6228C135.051 59.4268 135.38 59.2728 135.762 59.1608C136.122 59.0628 136.523 58.9788 136.966 58.9088C137.414 58.8342 137.867 58.7665 138.324 58.7058C138.782 58.6452 139.209 58.5868 139.605 58.5308L139.157 58.7898C139.171 58.1178 139.036 57.6208 138.751 57.2988C138.471 56.9768 137.986 56.8158 137.295 56.8158C136.838 56.8158 136.437 56.9208 136.091 57.1308C135.751 57.3362 135.51 57.6722 135.37 58.1388L134.187 57.7818C134.369 57.1192 134.722 56.5988 135.244 56.2208C135.767 55.8428 136.455 55.6538 137.309 55.6538C137.995 55.6538 138.583 55.7775 139.073 56.0248C139.568 56.2675 139.923 56.6362 140.137 57.1308C140.245 57.3642 140.312 57.6185 140.34 57.8938C140.368 58.1645 140.382 58.4492 140.382 58.7478V63.4238H139.276V61.6108L139.535 61.7788C139.251 62.3902 138.852 62.8522 138.338 63.1648C137.83 63.4775 137.209 63.6338 136.476 63.6338ZM136.665 62.5908C137.113 62.5908 137.501 62.5115 137.827 62.3528C138.159 62.1895 138.425 61.9772 138.625 61.7158C138.826 61.4498 138.957 61.1605 139.017 60.8478C139.087 60.6145 139.125 60.3555 139.129 60.0708C139.139 59.7815 139.143 59.5598 139.143 59.4058L139.577 59.5948C139.171 59.6508 138.772 59.7045 138.38 59.7558C137.988 59.8072 137.617 59.8632 137.267 59.9238C136.917 59.9798 136.602 60.0475 136.322 60.1268C136.117 60.1922 135.923 60.2762 135.741 60.3788C135.564 60.4815 135.419 60.6145 135.307 60.7778C135.2 60.9365 135.146 61.1348 135.146 61.3728C135.146 61.5782 135.198 61.7742 135.3 61.9608C135.408 62.1475 135.571 62.2992 135.79 62.4158C136.014 62.5325 136.306 62.5908 136.665 62.5908ZM142.342 54.5268V53.2388H143.588V54.5268H142.342ZM142.342 63.4238V55.8638H143.588V63.4238H142.342ZM151.071 63.4238V59.6368C151.071 59.2775 151.039 58.9322 150.973 58.6008C150.913 58.2695 150.803 57.9732 150.644 57.7118C150.49 57.4458 150.28 57.2358 150.014 57.0818C149.753 56.9278 149.422 56.8508 149.02 56.8508C148.708 56.8508 148.423 56.9045 148.166 57.0118C147.914 57.1145 147.697 57.2732 147.515 57.4878C147.333 57.7025 147.191 57.9732 147.088 58.2998C146.99 58.6218 146.941 59.0022 146.941 59.4408L146.122 59.1888C146.122 58.4562 146.253 57.8285 146.514 57.3058C146.78 56.7785 147.151 56.3748 147.627 56.0948C148.108 55.8102 148.673 55.6678 149.321 55.6678C149.811 55.6678 150.229 55.7448 150.574 55.8988C150.92 56.0528 151.207 56.2582 151.435 56.5148C151.664 56.7668 151.844 57.0515 151.974 57.3688C152.105 57.6815 152.196 58.0012 152.247 58.3278C152.303 58.6498 152.331 58.9555 152.331 59.2448V63.4238H151.071ZM145.681 63.4238V55.8638H146.801V57.8868H146.941V63.4238H145.681ZM161.035 63.6338C160.344 63.6338 159.714 63.5125 159.145 63.2698C158.576 63.0272 158.086 62.6795 157.675 62.2268C157.264 61.7695 156.947 61.2188 156.723 60.5748C156.504 59.9262 156.394 59.1958 156.394 58.3838C156.394 57.3105 156.585 56.3818 156.968 55.5978C157.351 54.8138 157.89 54.2095 158.585 53.7848C159.28 53.3555 160.097 53.1408 161.035 53.1408C162.164 53.1408 163.074 53.4045 163.765 53.9318C164.456 54.4545 164.932 55.1708 165.193 56.0808L163.933 56.3398C163.723 55.7285 163.378 55.2408 162.897 54.8768C162.416 54.5128 161.817 54.3308 161.098 54.3308C160.347 54.3262 159.721 54.4942 159.222 54.8348C158.727 55.1708 158.354 55.6445 158.102 56.2558C157.85 56.8672 157.722 57.5765 157.717 58.3838C157.712 59.1865 157.836 59.8912 158.088 60.4978C158.34 61.1045 158.716 61.5805 159.215 61.9258C159.719 62.2665 160.347 62.4392 161.098 62.4438C161.747 62.4485 162.293 62.3248 162.736 62.0728C163.179 61.8208 163.522 61.4568 163.765 60.9808C164.008 60.5048 164.155 59.9332 164.206 59.2658H162.064V58.2368H165.522C165.536 58.3302 165.543 58.4422 165.543 58.5728C165.548 58.6988 165.55 58.7852 165.55 58.8318C165.55 59.7512 165.377 60.5748 165.032 61.3028C164.691 62.0262 164.185 62.5955 163.513 63.0108C162.846 63.4262 162.02 63.6338 161.035 63.6338ZM169.097 63.6338C168.533 63.6338 168.059 63.5312 167.676 63.3258C167.298 63.1158 167.011 62.8405 166.815 62.4998C166.624 62.1592 166.528 61.7858 166.528 61.3798C166.528 60.9832 166.603 60.6402 166.752 60.3508C166.906 60.0568 167.121 59.8142 167.396 59.6228C167.672 59.4268 168.001 59.2728 168.383 59.1608C168.743 59.0628 169.144 58.9788 169.587 58.9088C170.035 58.8342 170.488 58.7665 170.945 58.7058C171.403 58.6452 171.83 58.5868 172.226 58.5308L171.778 58.7898C171.792 58.1178 171.657 57.6208 171.372 57.2988C171.092 56.9768 170.607 56.8158 169.916 56.8158C169.459 56.8158 169.058 56.9208 168.712 57.1308C168.372 57.3362 168.131 57.6722 167.991 58.1388L166.808 57.7818C166.99 57.1192 167.343 56.5988 167.865 56.2208C168.388 55.8428 169.076 55.6538 169.93 55.6538C170.616 55.6538 171.204 55.7775 171.694 56.0248C172.189 56.2675 172.544 56.6362 172.758 57.1308C172.866 57.3642 172.933 57.6185 172.961 57.8938C172.989 58.1645 173.003 58.4492 173.003 58.7478V63.4238H171.897V61.6108L172.156 61.7788C171.872 62.3902 171.473 62.8522 170.959 63.1648C170.451 63.4775 169.83 63.6338 169.097 63.6338ZM169.286 62.5908C169.734 62.5908 170.122 62.5115 170.448 62.3528C170.78 62.1895 171.046 61.9772 171.246 61.7158C171.447 61.4498 171.578 61.1605 171.638 60.8478C171.708 60.6145 171.746 60.3555 171.75 60.0708C171.76 59.7815 171.764 59.5598 171.764 59.4058L172.198 59.5948C171.792 59.6508 171.393 59.7045 171.001 59.7558C170.609 59.8072 170.238 59.8632 169.888 59.9238C169.538 59.9798 169.223 60.0475 168.943 60.1268C168.738 60.1922 168.544 60.2762 168.362 60.3788C168.185 60.4815 168.04 60.6145 167.928 60.7778C167.821 60.9365 167.767 61.1348 167.767 61.3728C167.767 61.5782 167.819 61.7742 167.921 61.9608C168.029 62.1475 168.192 62.2992 168.411 62.4158C168.635 62.5325 168.927 62.5908 169.286 62.5908ZM183.86 63.4238L183.867 58.5868C183.867 58.0222 183.716 57.5812 183.412 57.2638C183.114 56.9418 182.724 56.7808 182.243 56.7808C181.963 56.7808 181.697 56.8462 181.445 56.9768C181.193 57.1028 180.988 57.3035 180.829 57.5788C180.671 57.8495 180.591 58.1972 180.591 58.6218L179.933 58.3558C179.924 57.8192 180.034 57.3502 180.262 56.9488C180.496 56.5428 180.813 56.2278 181.214 56.0038C181.616 55.7798 182.068 55.6678 182.572 55.6678C183.361 55.6678 183.982 55.9082 184.434 56.3888C184.887 56.8648 185.113 57.5065 185.113 58.3138L185.106 63.4238H183.86ZM174.816 63.4238V55.8638H175.929V57.8868H176.069V63.4238H174.816ZM179.345 63.4238L179.352 58.6358C179.352 58.0572 179.203 57.6045 178.904 57.2778C178.606 56.9465 178.209 56.7808 177.714 56.7808C177.224 56.7808 176.828 56.9488 176.524 57.2848C176.221 57.6208 176.069 58.0665 176.069 58.6218L175.411 58.2298C175.411 57.7398 175.528 57.3012 175.761 56.9138C175.995 56.5265 176.312 56.2232 176.713 56.0038C177.115 55.7798 177.57 55.6678 178.078 55.6678C178.587 55.6678 179.03 55.7752 179.408 55.9898C179.786 56.2045 180.078 56.5125 180.283 56.9138C180.489 57.3105 180.591 57.7842 180.591 58.3348L180.584 63.4238H179.345ZM190.144 63.6338C189.402 63.6338 188.754 63.4705 188.198 63.1438C187.648 62.8125 187.218 62.3528 186.91 61.7648C186.602 61.1722 186.448 60.4815 186.448 59.6928C186.448 58.8668 186.6 58.1528 186.903 57.5508C187.207 56.9442 187.629 56.4775 188.17 56.1508C188.716 55.8195 189.356 55.6538 190.088 55.6538C190.849 55.6538 191.495 55.8288 192.027 56.1788C192.564 56.5288 192.965 57.0282 193.231 57.6768C193.502 58.3255 193.619 59.0978 193.581 59.9938H192.321V59.5458C192.307 58.6172 192.118 57.9242 191.754 57.4668C191.39 57.0048 190.849 56.7738 190.13 56.7738C189.36 56.7738 188.775 57.0212 188.373 57.5158C187.972 58.0105 187.771 58.7198 187.771 59.6438C187.771 60.5352 187.972 61.2258 188.373 61.7158C188.775 62.2058 189.346 62.4508 190.088 62.4508C190.588 62.4508 191.022 62.3365 191.39 62.1078C191.759 61.8792 192.048 61.5502 192.258 61.1208L193.455 61.5338C193.161 62.2012 192.718 62.7192 192.125 63.0878C191.537 63.4518 190.877 63.6338 190.144 63.6338ZM187.351 59.9938V58.9928H192.937V59.9938H187.351Z" fill="#84899A"/>
</svg>
