<svg width="1440" height="24" viewBox="0 0 1440 24" fill="none" xmlns="http://www.w3.org/2000/svg">
<g clip-path="url(#clip0_226_1237)">
<path d="M0 10.7303L41.2385 7L113.565 7.00001L216.087 10.7303L283.859 11.9666C285.165 11.9905 286.461 12.1969 287.71 12.5801L304.718 17.7983C308.421 18.9342 312.428 18.4857 315.788 16.5593L319.144 14.6349C321.137 13.4925 323.359 12.8584 325.655 12.7915C347.023 12.1686 462.175 9.00154 538.565 10.7303C564.783 11.3237 579.457 12.8959 605.681 12.9293C647.901 12.9831 671.445 8.2448 713.66 7.58924C729.624 7.34133 752.977 7.50254 760.656 7.5665C762.367 7.58074 764.059 7.68546 765.758 7.87753L791 10.7303L1048.94 12.7449C1050.26 12.7552 1051.48 13.4664 1052.13 14.6127C1053.44 16.9 1056.65 17.1324 1058.28 15.0578L1058.82 14.3719C1059.61 13.353 1060.82 12.7484 1062.11 12.7291C1071.29 12.5926 1110.87 12.1002 1168.06 12.7615C1208.1 13.2245 1268.56 16.246 1304.92 16.246C1329.94 16.246 1343.74 11.5289 1368.74 10.7303C1396.56 9.84161 1440 12.7615 1440 12.7615V250.641H0V10.7303Z" fill="#14132B"/>
</g>
<defs>
<clipPath id="clip0_226_1237">
<rect width="1440" height="24" fill="white"/>
</clipPath>
</defs>
</svg>
