<svg width="850" height="315" viewBox="0 0 850 315" fill="none" xmlns="http://www.w3.org/2000/svg">
<path d="M307.061 23.2142V131.093H277.163L236.169 82.0851V131.093H200.723V23.2142H230.621L271.615 72.2219V23.2142H307.061ZM414.278 103.661V131.093H324.585V23.2142H412.275V50.6462H360.339V63.2834H405.956V89.4825H360.339V103.661H414.278ZM501.791 112.291H460.797L453.554 131.093H416.567L463.725 23.2142H499.479L546.638 131.093H509.034L501.791 112.291ZM491.774 86.092L481.294 58.9683L470.815 86.092H491.774ZM598.676 103.969H588.813V131.093H552.442V23.2142H604.378C614.344 23.2142 623.026 24.8581 630.423 28.1458C637.82 31.4336 643.523 36.1597 647.53 42.3242C651.536 48.4886 653.54 55.6805 653.54 63.8999C653.54 71.6055 651.793 78.335 648.3 84.0886C644.807 89.8421 639.773 94.4141 633.197 97.8045L655.852 131.093H617.015L598.676 103.969ZM616.861 63.8999C616.861 59.8929 615.628 56.8107 613.162 54.6531C610.697 52.3928 606.998 51.2627 602.066 51.2627H588.813V76.5371H602.066C606.998 76.5371 610.697 75.4583 613.162 73.3007C615.628 71.0404 616.861 67.9068 616.861 63.8999Z" fill="#0A1335"/>
<path d="M307.061 23.2142H308.004V22.2711H307.061V23.2142ZM307.061 131.093V132.036H308.004V131.093H307.061ZM277.163 131.093L276.44 131.698L276.722 132.036H277.163V131.093ZM236.169 82.0851L236.893 81.4799L235.226 79.4875V82.0851H236.169ZM236.169 131.093V132.036H237.112V131.093H236.169ZM200.723 131.093H199.78V132.036H200.723V131.093ZM200.723 23.2142V22.2711H199.78V23.2142H200.723ZM230.621 23.2142L231.345 22.6091L231.062 22.2711H230.621V23.2142ZM271.615 72.2219L270.892 72.8271L272.558 74.8195V72.2219H271.615ZM271.615 23.2142V22.2711H270.672V23.2142H271.615ZM306.118 23.2142V131.093H308.004V23.2142H306.118ZM307.061 130.15H277.163V132.036H307.061V130.15ZM277.886 130.488L236.893 81.4799L235.446 82.6902L276.44 131.698L277.886 130.488ZM235.226 82.0851V131.093H237.112V82.0851H235.226ZM236.169 130.15H200.723V132.036H236.169V130.15ZM201.667 131.093V23.2142H199.78V131.093H201.667ZM200.723 24.1574H230.621V22.2711H200.723V24.1574ZM229.898 23.8194L270.892 72.8271L272.338 71.6168L231.345 22.6091L229.898 23.8194ZM272.558 72.2219V23.2142H270.672V72.2219H272.558ZM271.615 24.1574H307.061V22.2711H271.615V24.1574ZM414.278 103.661H415.221V102.718H414.278V103.661ZM414.278 131.093V132.036H415.221V131.093H414.278ZM324.585 131.093H323.642V132.036H324.585V131.093ZM324.585 23.2142V22.2711H323.642V23.2142H324.585ZM412.275 23.2142H413.218V22.2711H412.275V23.2142ZM412.275 50.6462V51.5894H413.218V50.6462H412.275ZM360.339 50.6462V49.703H359.396V50.6462H360.339ZM360.339 63.2834H359.396V64.2266H360.339V63.2834ZM405.956 63.2834H406.899V62.3402H405.956V63.2834ZM405.956 89.4825V90.4257H406.899V89.4825H405.956ZM360.339 89.4825V88.5393H359.396V89.4825H360.339ZM360.339 103.661H359.396V104.604H360.339V103.661ZM413.335 103.661V131.093H415.221V103.661H413.335ZM414.278 130.15H324.585V132.036H414.278V130.15ZM325.528 131.093V23.2142H323.642V131.093H325.528ZM324.585 24.1574H412.275V22.2711H324.585V24.1574ZM411.332 23.2142V50.6462H413.218V23.2142H411.332ZM412.275 49.703H360.339V51.5894H412.275V49.703ZM359.396 50.6462V63.2834H361.282V50.6462H359.396ZM360.339 64.2266H405.956V62.3402H360.339V64.2266ZM405.013 63.2834V89.4825H406.899V63.2834H405.013ZM405.956 88.5393H360.339V90.4257H405.956V88.5393ZM359.396 89.4825V103.661H361.282V89.4825H359.396ZM360.339 104.604H414.278V102.718H360.339V104.604ZM501.791 112.291L502.671 111.952L502.439 111.348H501.791V112.291ZM460.797 112.291V111.348H460.15L459.917 111.952L460.797 112.291ZM453.554 131.093V132.036H454.201L454.434 131.432L453.554 131.093ZM416.567 131.093L415.703 130.715L415.125 132.036H416.567V131.093ZM463.725 23.2142V22.2711H463.108L462.861 22.8365L463.725 23.2142ZM499.479 23.2142L500.344 22.8365L500.097 22.2711H499.479V23.2142ZM546.638 131.093V132.036H548.079L547.502 130.715L546.638 131.093ZM509.034 131.093L508.154 131.432L508.387 132.036H509.034V131.093ZM491.774 86.092V87.0352H493.149L492.654 85.7521L491.774 86.092ZM481.294 58.9683L482.174 58.6283L481.294 56.3513L480.414 58.6283L481.294 58.9683ZM470.815 86.092L469.935 85.7521L469.439 87.0352H470.815V86.092ZM501.791 111.348H460.797V113.234H501.791V111.348ZM459.917 111.952L452.674 130.754L454.434 131.432L461.677 112.63L459.917 111.952ZM453.554 130.15H416.567V132.036H453.554V130.15ZM417.431 131.471L464.59 23.592L462.861 22.8365L415.703 130.715L417.431 131.471ZM463.725 24.1574H499.479V22.2711H463.725V24.1574ZM498.615 23.592L545.774 131.471L547.502 130.715L500.344 22.8365L498.615 23.592ZM546.638 130.15H509.034V132.036H546.638V130.15ZM509.915 130.754L502.671 111.952L500.911 112.63L508.154 131.432L509.915 130.754ZM492.654 85.7521L482.174 58.6283L480.414 59.3082L490.894 86.4319L492.654 85.7521ZM480.414 58.6283L469.935 85.7521L471.694 86.4319L482.174 59.3082L480.414 58.6283ZM470.815 87.0352H491.774V85.1488H470.815V87.0352ZM598.676 103.969L599.457 103.441L599.177 103.026H598.676V103.969ZM588.813 103.969V103.026H587.87V103.969H588.813ZM588.813 131.093V132.036H589.756V131.093H588.813ZM552.442 131.093H551.499V132.036H552.442V131.093ZM552.442 23.2142V22.2711H551.499V23.2142H552.442ZM630.423 28.1458L630.04 29.0077L630.423 28.1458ZM647.53 42.3242L646.739 42.8382L647.53 42.3242ZM648.3 84.0886L647.494 83.5991L648.3 84.0886ZM633.197 97.8045L632.765 96.9662L631.818 97.4545L632.417 98.3352L633.197 97.8045ZM655.852 131.093V132.036H657.634L656.631 130.562L655.852 131.093ZM617.015 131.093L616.234 131.621L616.514 132.036H617.015V131.093ZM613.163 54.6531L612.525 55.3484L612.533 55.3558L612.541 55.3629L613.163 54.6531ZM588.813 51.2627V50.3195H587.87V51.2627H588.813ZM588.813 76.5371H587.87V77.4802H588.813V76.5371ZM613.163 73.3007L613.784 74.0105L613.792 74.0033L613.8 73.996L613.163 73.3007ZM598.676 103.026H588.813V104.912H598.676V103.026ZM587.87 103.969V131.093H589.756V103.969H587.87ZM588.813 130.15H552.442V132.036H588.813V130.15ZM553.385 131.093V23.2142H551.499V131.093H553.385ZM552.442 24.1574H604.378V22.2711H552.442V24.1574ZM604.378 24.1574C614.242 24.1574 622.788 25.7845 630.04 29.0077L630.806 27.2839C623.264 23.9317 614.446 22.2711 604.378 22.2711V24.1574ZM630.04 29.0077C637.288 32.2291 642.841 36.8419 646.739 42.8382L648.32 41.8101C644.204 35.4774 638.353 30.638 630.806 27.2839L630.04 29.0077ZM646.739 42.8382C650.635 48.832 652.597 55.8408 652.597 63.8999H654.483C654.483 55.5203 652.438 48.1453 648.32 41.8101L646.739 42.8382ZM652.597 63.8999C652.597 71.4583 650.885 78.0135 647.494 83.5991L649.106 84.578C652.701 78.6566 654.483 71.7526 654.483 63.8999H652.597ZM647.494 83.5991C644.1 89.1896 639.202 93.6472 632.765 96.9662L633.629 98.6428C640.343 95.1809 645.514 90.4946 649.106 84.578L647.494 83.5991ZM632.417 98.3352L655.072 131.623L656.631 130.562L633.977 97.2739L632.417 98.3352ZM655.852 130.15H617.015V132.036H655.852V130.15ZM617.797 130.564L599.457 103.441L597.895 104.497L616.234 131.621L617.797 130.564ZM617.804 63.8999C617.804 59.6869 616.499 56.3193 613.784 53.9433L612.541 55.3629C614.758 57.3021 615.918 60.099 615.918 63.8999H617.804ZM613.8 53.9579C611.093 51.4768 607.124 50.3195 602.066 50.3195V52.2058C606.872 52.2058 610.3 53.3088 612.525 55.3484L613.8 53.9579ZM602.066 50.3195H588.813V52.2058H602.066V50.3195ZM587.87 51.2627V76.5371H589.756V51.2627H587.87ZM588.813 77.4802H602.066V75.5939H588.813V77.4802ZM602.066 77.4802C607.115 77.4802 611.077 76.3786 613.784 74.0105L612.541 72.5909C610.316 74.5379 606.881 75.5939 602.066 75.5939V77.4802ZM613.8 73.996C616.499 71.5219 617.804 68.1143 617.804 63.8999H615.918C615.918 67.6992 614.758 70.5589 612.525 72.6054L613.8 73.996Z" fill="black"/>
<path d="M9.62424 177.989H62.7929C74.8137 177.989 85.3961 180.198 94.5401 184.616C103.787 188.931 110.927 195.147 115.962 203.264C121.099 211.38 123.667 220.935 123.667 231.929C123.667 242.922 121.099 252.477 115.962 260.594C110.927 268.71 103.787 274.977 94.5401 279.395C85.3961 283.71 74.8137 285.868 62.7929 285.868H9.62424V177.989ZM61.2518 257.511C69.0602 257.511 75.276 255.302 79.8994 250.884C84.6255 246.364 86.9886 240.045 86.9886 231.929C86.9886 223.812 84.6255 217.545 79.8994 213.127C75.276 208.606 69.0602 206.346 61.2518 206.346H45.9947V257.511H61.2518ZM188.575 288.334C172.034 288.334 159.14 283.864 149.893 274.926C140.646 265.987 136.023 253.453 136.023 237.323V177.989H172.393V236.244C172.393 244.155 173.78 249.908 176.554 253.504C179.431 257.1 183.541 258.898 188.883 258.898C194.226 258.898 198.284 257.1 201.058 253.504C203.935 249.908 205.373 244.155 205.373 236.244V177.989H241.127V237.323C241.127 253.453 236.504 265.987 227.257 274.926C218.01 283.864 205.116 288.334 188.575 288.334ZM364.136 177.989V285.868H334.239L293.245 236.86V285.868H257.799V177.989H287.697L328.691 226.997V177.989H364.136ZM453.015 229.001H484.608V274.618C478.238 279.036 470.84 282.426 462.415 284.789C453.991 287.152 445.72 288.334 437.603 288.334C426.096 288.334 415.771 285.971 406.627 281.245C397.483 276.416 390.291 269.738 385.051 261.21C379.914 252.58 377.346 242.819 377.346 231.929C377.346 221.038 379.914 211.329 385.051 202.801C390.291 194.171 397.534 187.493 406.781 182.767C416.13 177.938 426.661 175.524 438.374 175.524C448.956 175.524 458.409 177.322 466.731 180.918C475.155 184.411 482.142 189.548 487.69 196.329L464.419 216.826C457.638 208.915 449.573 204.959 440.223 204.959C432.209 204.959 425.84 207.373 421.113 212.202C416.387 217.031 414.024 223.607 414.024 231.929C414.024 240.045 416.336 246.569 420.959 251.501C425.685 256.432 431.953 258.898 439.761 258.898C444.384 258.898 448.802 258.025 453.015 256.278V229.001ZM589.798 258.436V285.868H500.104V177.989H587.794V205.421H535.858V218.059H581.476V244.258H535.858V258.436H589.798ZM660.358 288.334C648.748 288.334 638.32 285.919 629.073 281.09C619.827 276.262 612.583 269.583 607.344 261.056C602.104 252.426 599.484 242.717 599.484 231.929C599.484 221.141 602.104 211.483 607.344 202.956C612.583 194.325 619.827 187.596 629.073 182.767C638.32 177.938 648.748 175.524 660.358 175.524C671.968 175.524 682.396 177.938 691.643 182.767C700.89 187.596 708.133 194.325 713.373 202.956C718.613 211.483 721.232 221.141 721.232 231.929C721.232 242.717 718.613 252.426 713.373 261.056C708.133 269.583 700.89 276.262 691.643 281.09C682.396 285.919 671.968 288.334 660.358 288.334ZM660.358 258.898C664.879 258.898 668.937 257.82 672.533 255.662C676.232 253.402 679.16 250.268 681.317 246.261C683.475 242.151 684.554 237.374 684.554 231.929C684.554 226.483 683.475 221.757 681.317 217.75C679.16 213.641 676.232 210.507 672.533 208.349C668.937 206.089 664.879 204.959 660.358 204.959C655.837 204.959 651.728 206.089 648.029 208.349C644.433 210.507 641.556 213.641 639.399 217.75C637.241 221.757 636.162 226.483 636.162 231.929C636.162 237.374 637.241 242.151 639.399 246.261C641.556 250.268 644.433 253.402 648.029 255.662C651.728 257.82 655.837 258.898 660.358 258.898ZM840.77 177.989V285.868H810.873L769.879 236.86V285.868H734.433V177.989H764.331L805.325 226.997V177.989H840.77Z" fill="#0A1335"/>
<path d="M73.7463 196.806L69.7697 212.618L65.5602 219.017L61.3506 225.415L58.7021 206.202L63.4313 206.924L70.4272 197.874L73.7463 196.806Z" fill="white"/>
<path d="M262.645 287.774L276.576 279.302L281.676 278.027L284.066 281.982L293.917 285.868L277.094 287.807L265.759 289.343L262.645 287.774Z" fill="white"/>
<path d="M162.599 284.139L147.89 277.104L142.454 271.709L137.018 266.313L156.375 267.53L154.729 272.022L162.211 280.674L162.599 284.139Z" fill="white"/>
<path d="M374.761 192.192L360.052 185.156L354.616 179.761L349.18 174.365L368.537 175.582L366.891 180.074L374.373 188.727L374.761 192.192Z" fill="white"/>
<path d="M363.764 16.937L365.317 21.8784L357.524 32.3638L356.362 32.8623L351.762 38.4404L349.755 39.3098L353.398 34.7071L356.102 29.4555L363.764 16.937Z" fill="white"/>
<path d="M660.797 87.5979L659.989 91.3421L647.537 84.7253L646.179 83.3721L639.114 79.2556L636.764 76.9198L642.446 80.1164L647.52 81.8545L660.797 87.5979Z" fill="white"/>
<path d="M540.389 26.0554L541.917 22.5427L551.51 32.4761L554.976 32.4598L560.012 38.4928L561.858 41.2447L554.009 37.2907L548.504 34.1828L540.389 26.0554Z" fill="white"/>
<path d="M515.626 175.313L526.967 176.705L510.626 187.248L505.788 191.925L499.175 199.667L493.776 206.268L501.323 194.134L507.158 185.675L515.626 175.313Z" fill="white"/>
<path d="M524.866 309.607L515.979 289.316L531.033 285.726L538.334 280.577L541.021 280.188L553.666 271.172L550.905 275.455L548.196 278.008L539.667 287.401L524.866 309.607Z" fill="white"/>
<path d="M672.464 236.481L679.238 226.048L691.397 221.492L701.388 212.268L715.423 205.619L762.676 187.273L739.214 199.788L708.835 211.385L698.787 219.13L672.464 236.481Z" fill="white"/>
<path d="M435.653 219.307L438.683 228.95L423.475 249.411L421.208 250.384L412.231 261.269L408.314 262.966L415.424 253.984L420.7 243.736L435.653 219.307Z" fill="white"/>
<path d="M205.737 84.2791L203.584 92.8431L201.304 96.3085L199.024 99.774L197.589 89.368L200.151 89.7589L203.94 84.8574L205.737 84.2791Z" fill="white"/>
<path d="M474.484 115.816L460.827 116.091L454.726 114.101L448.626 112.11L458.632 108.052L464.03 109.712L472.888 113.369L474.484 115.816Z" fill="white"/>
<path d="M480.041 29.1223L466.383 29.3971L460.283 27.4066L454.183 25.4162L470.831 19.1573L472.303 25.4162L478.445 26.6753L480.041 29.1223Z" fill="white"/>
</svg>
