<svg width="1440" height="550" viewBox="0 0 1440 550" fill="none" xmlns="http://www.w3.org/2000/svg">
<g clip-path="url(#clip0_205_1236)">
<path d="M-11 -3758.81C-11 -3758.81 29.6655 -3765.03 50.9791 -3765.03C75.3139 -3765.03 105.071 -3766.76 121.057 -3767.82C128.687 -3768.32 136.341 -3768 143.886 -3766.76L179.318 -3760.96C181.503 -3760.6 183.458 -3759.39 184.758 -3757.6L184.912 -3757.39C187.71 -3753.53 193.205 -3752.88 196.823 -3755.98C198.605 -3757.51 200.958 -3758.19 203.281 -3757.86L244.719 -3751.96C257.392 -3750.16 270.294 -3750.81 282.724 -3753.87L347.998 -3769.94H367.268L378.106 -3777.61L892.155 -3905.34C894.783 -3905.99 897.48 -3906.32 900.188 -3906.32H903.374C907.108 -3906.32 910.776 -3907.3 914.014 -3909.16C917.252 -3911.02 920.921 -3912 924.655 -3912L942.957 -3912C954.597 -3912 966.147 -3909.97 977.088 -3905.99L1025.93 -3888.26L1031.06 -3882.49H1036.97L1038.05 -3882.32C1063.12 -3878.28 1085.71 -3864.86 1101.24 -3844.78L1106.57 -3837.89C1109.99 -3833.47 1114.22 -3829.74 1119.04 -3826.9L1121.03 -3825.73C1125.19 -3823.28 1129.83 -3821.76 1134.63 -3821.27C1138.67 -3820.86 1142.6 -3819.72 1146.23 -3817.9L1156.64 -3812.69C1174.55 -3803.72 1194.73 -3800.33 1214.59 -3802.97L1299.55 -3814.25C1309.76 -3815.6 1320.12 -3815.37 1330.26 -3813.57L1349.5 -3810.14L1405.94 -3812.03C1408.01 -3812.1 1410.05 -3811.52 1411.78 -3810.38L1417.87 -3806.35C1420.35 -3804.71 1423.65 -3805.09 1425.7 -3807.25C1427.36 -3809.01 1429.91 -3809.62 1432.19 -3808.81L1440.2 -3805.97V550.021L1287.55 475.041C1278.95 470.818 1271.01 465.383 1263.96 458.9L1237.82 434.874C1222.04 420.36 1202 411.306 1180.68 409.046L1142.84 405.038C1134.78 404.186 1127.06 401.39 1120.33 396.892L1088.97 375.945L1080.88 356.96C1078.74 351.934 1073.35 349.118 1068 350.233C1064.1 351.047 1060.04 350.129 1056.87 347.719L996.128 301.559C994.146 300.052 992.391 298.27 990.916 296.264L961.618 256.436C959.873 254.062 957.737 252.003 955.301 250.346L935.957 237.183C932.92 235.117 930.356 232.43 928.432 229.301L880.767 151.742C870.434 134.93 850.865 126.154 831.439 129.621L787.114 137.532C782.658 138.327 778.115 138.514 773.608 138.086L631.355 124.596C626.309 124.118 621.219 124.409 616.261 125.461L539.325 141.778C531.717 143.392 523.805 142.768 516.544 139.982L513.099 138.659C503.381 134.931 492.472 136.017 483.68 141.589C478.952 144.585 473.537 146.327 467.948 146.649L356.214 153.08C350.392 153.415 344.556 152.729 338.971 151.053L248.391 123.875L197.618 86.9834L146.845 50.0918L-9.36023 -0.0625L-11 -3758.81Z" fill="#14132B"/>
</g>
<defs>
<clipPath id="clip0_205_1236">
<rect width="1440" height="550" fill="white"/>
</clipPath>
</defs>
</svg>
