<svg width="1440" height="180" viewBox="0 0 1440 180" fill="none" xmlns="http://www.w3.org/2000/svg">
<g clip-path="url(#clip0_205_1236)">
<path d="M-11 153.191C-11 153.191 29.6655 146.965 50.9791 146.965C75.3139 146.965 105.071 145.243 121.057 144.184C128.687 143.679 136.341 144.001 143.886 145.237L179.318 151.044C181.503 151.402 183.458 152.608 184.758 154.401L184.912 154.613C187.71 158.471 193.205 159.119 196.823 156.018V156.018C198.605 154.491 200.958 153.805 203.281 154.136L244.719 160.036C257.392 161.841 270.294 161.195 282.724 158.134L347.998 142.062H367.268L378.106 134.391L892.155 6.65949C894.783 6.00659 897.48 5.67649 900.188 5.67649H903.374C907.108 5.67649 910.776 4.6979 914.014 2.83825V2.83825C917.252 0.978596 920.921 6.89271e-06 924.655 1.99912e-05L942.957 8.4193e-05C954.597 0.000125026 966.147 2.0324 977.088 6.00539L1025.93 23.7412L1031.06 29.5061H1036.97L1038.05 29.6798C1063.12 33.7183 1085.71 47.1395 1101.24 67.2211L1106.57 74.1104C1109.99 78.5321 1114.22 82.2613 1119.04 85.0986L1121.03 86.2715C1125.19 88.7207 1129.83 90.241 1134.63 90.728V90.728C1138.67 91.1378 1142.6 92.2798 1146.23 94.0982L1156.64 99.3127C1174.55 108.281 1194.73 111.667 1214.59 109.031L1299.55 97.7508C1309.76 96.3954 1320.12 96.6252 1330.25 98.432L1349.5 101.862L1405.94 99.9731C1408.01 99.9037 1410.05 100.481 1411.78 101.624L1417.87 105.648C1420.35 107.287 1423.65 106.909 1425.7 104.752V104.752C1427.36 102.995 1429.91 102.384 1432.19 103.194L1440.2 106.035V4462.02L1287.55 4387.04C1278.95 4382.82 1271.01 4377.38 1263.96 4370.9L1237.82 4346.87C1222.04 4332.36 1202 4323.31 1180.68 4321.05L1142.84 4317.04C1134.78 4316.19 1127.06 4313.39 1120.33 4308.89L1088.97 4287.94L1080.88 4268.96C1078.74 4263.93 1073.35 4261.12 1068 4262.23V4262.23C1064.1 4263.05 1060.04 4262.13 1056.87 4259.72L996.128 4213.56C994.146 4212.05 992.391 4210.27 990.916 4208.26L961.618 4168.44C959.873 4166.06 957.737 4164 955.301 4162.35L935.957 4149.18C932.92 4147.12 930.356 4144.43 928.432 4141.3L880.767 4063.74C870.434 4046.93 850.865 4038.15 831.439 4041.62L787.114 4049.53C782.658 4050.33 778.114 4050.51 773.608 4050.09L631.355 4036.6C626.309 4036.12 621.219 4036.41 616.261 4037.46L539.325 4053.78C531.717 4055.39 523.805 4054.77 516.545 4051.98L513.099 4050.66C503.381 4046.93 492.472 4048.02 483.68 4053.59V4053.59C478.952 4056.59 473.537 4058.33 467.948 4058.65L356.214 4065.08C350.392 4065.42 344.556 4064.73 338.971 4063.05L248.391 4035.87L197.618 3998.98L146.845 3962.09L-9.36023 3911.94L-11 153.191Z" fill="#14132B"/>
</g>
<defs>
<clipPath id="clip0_205_1236">
<rect width="1440" height="180" fill="white"/>
</clipPath>
</defs>
</svg>
