<svg width="1119" height="314" viewBox="0 0 1119 314" fill="none" xmlns="http://www.w3.org/2000/svg">
<path d="M10.5868 244.392L28.5169 209.991C29.0392 208.989 29.6455 208.033 30.3293 207.133L42.1572 191.57C44.9174 187.938 46.0047 183.305 45.1481 178.825C44.4946 175.406 44.9681 171.868 46.4974 168.742L48.4945 164.659C52.1303 157.227 59.967 152.801 68.209 153.525L90.4938 155.481C94.7541 155.855 98.7823 157.585 101.987 160.416L166.839 217.715L206.55 260.191C216.916 271.279 211.638 289.419 196.942 293.214L160.81 302.545C159.764 302.815 158.741 303.17 157.752 303.606L140.569 311.171C137.521 312.513 134.186 313.072 130.867 312.799L116.403 311.607C112.895 311.317 110.195 308.386 110.195 304.866C110.195 300.782 106.604 297.63 102.555 298.159L91.2154 299.642C88.2389 300.031 85.2126 299.616 82.451 298.439L20.4826 272.036C9.75814 267.466 5.19877 254.73 10.5868 244.392Z" fill="#14132B"/>
<path d="M1009.72 84.0888L1008.72 61.6478L1008.35 44.6054C1008.3 42.4079 1008.77 40.23 1009.72 38.2481L1013.08 31.2463L1016.23 23.5863C1019.44 15.7602 1030.1 15.3155 1033.78 22.9352C1040.83 37.5518 1048.97 54.8525 1057.06 69.5105L1062.03 90.2308C1063.37 98.6936 1067.63 110.644 1069.46 115.55C1070.01 117.024 1070.24 118.6 1070.09 120.166L1068.65 135.137L1062.56 144.564C1059.85 148.752 1054.47 150.304 1049.95 148.203L1036.69 142.043L1009.51 112.377C1006.65 109.256 1005.48 104.936 1006.39 100.801L1009.5 86.6857C1009.69 85.8336 1009.76 84.9605 1009.72 84.0888Z" fill="#14132B"/>
<path d="M1077.77 283.324C1062.26 278.04 1054.89 273.057 1044.38 266.393C1043.15 265.617 1042.65 264.079 1043.24 262.755C1044.59 259.746 1047.06 254.672 1049.08 253.107C1049.5 252.789 1049.95 252.519 1050.43 252.306C1053.49 250.927 1065.42 248.548 1071.41 247.407C1073.63 246.982 1075.93 247.438 1077.84 248.657L1099.09 262.213C1099.23 262.297 1099.36 262.37 1099.51 262.432L1113.48 268.547C1114.14 268.833 1114.67 269.341 1114.98 269.982L1117.15 274.441C1118.03 276.244 1116.92 278.384 1114.95 278.729C1102.89 280.836 1095.36 282.522 1081.31 283.75C1080.12 283.855 1078.9 283.712 1077.77 283.324Z" fill="#14132B"/>
</svg>
