<svg width="902" height="392" viewBox="0 0 902 392" fill="none" xmlns="http://www.w3.org/2000/svg">
<path d="M16.9058 142.994L26.1636 173.61C27.4704 177.932 31.7768 180.617 36.2323 179.887L70.6058 174.26C72.6567 173.925 74.5283 172.89 75.9027 171.331L78.2747 168.64C81.3499 165.152 86.6027 164.646 90.288 167.481C92.382 169.093 95.0872 169.682 97.6616 169.088L116.089 164.835L176.898 149.452C184.882 147.432 186.184 136.636 178.908 132.776L164.21 124.979C163.694 124.705 163.153 124.483 162.595 124.314L134.216 115.741C133.563 115.544 132.935 115.274 132.344 114.935L88.4494 89.7829C87.976 89.5117 87.4789 89.284 86.9643 89.1028L78.1505 85.999C76.6614 85.4747 75.0545 85.3814 73.5147 85.7301L71.8263 86.1125C69.1649 86.7152 66.4272 85.4756 65.1244 83.0779C64.4038 81.7518 63.2169 80.7402 61.7933 80.2389L40.9299 72.8918C40.492 72.7376 40.0429 72.6175 39.5865 72.5326L28.5893 70.4869C25.6453 69.9392 22.6216 70.8917 20.5231 73.0279L13.3497 80.33C12.9006 80.7871 12.5015 81.291 12.1594 81.8329L3.377 95.7455C1.36186 98.9378 1.5531 103.048 3.85593 106.04L14.6522 120.064C15.8637 121.638 16.5206 123.568 16.5206 125.554V140.389C16.5206 141.271 16.6504 142.149 16.9058 142.994Z" fill="#14132B"/>
<path d="M827.087 322.236L809.912 351.287C806.268 357.451 810.931 365.195 818.083 364.858L848.905 363.405C849.916 363.358 850.911 363.14 851.85 362.761L880.727 351.108C887.215 348.49 888.366 339.795 882.782 335.579L866.046 322.945L854.746 313.551C852.106 311.356 848.446 310.855 845.312 312.259L831.154 318.603C829.455 319.365 828.034 320.634 827.087 322.236Z" fill="#14132B"/>
<path d="M822.665 157.421L784.672 110.238L766.572 86.2995C765.802 85.2805 765.257 84.1092 764.974 82.8633L761.913 69.3764C759.631 59.3183 751.406 51.6944 741.203 50.1803L736.763 49.5212L702.778 40.7659C701.422 40.4167 700.019 40.2887 698.622 40.3869L673.521 42.1523C672.045 42.2562 670.562 42.1253 669.127 41.7645L590.157 21.916C589.385 21.722 588.598 21.5941 587.804 21.5339L508.203 15.4869C507.164 15.408 506.12 15.4247 505.084 15.5369L462.86 20.1102C454.849 20.9778 451.928 31.1274 458.252 36.1211L494.465 64.7176C494.831 65.0068 495.174 65.324 495.491 65.6665L543.412 117.425C545.148 119.3 547.599 120.348 550.154 120.309L559.796 120.162C563.454 120.106 566.782 122.269 568.215 125.635L569.118 127.757C570.078 130.012 571.916 131.777 574.208 132.646L638.589 157.06C642.742 158.635 646.423 161.245 649.284 164.642C651.448 167.21 654.087 169.337 657.058 170.904L727.125 207.873C730.56 209.685 733.771 211.891 736.695 214.446L742.248 219.299C749.573 225.7 759.153 228.905 768.855 228.199C777.845 227.546 786.273 223.582 792.509 217.074L803.96 205.125C804.572 204.486 805.086 203.761 805.487 202.972L823.68 167.139C825.282 163.982 824.885 160.179 822.665 157.421Z" fill="#14132B"/>
</svg>
